<?xml version="1.0" encoding="utf-8"?>
<!-- Generator: Adobe Illustrator 22.0.0, SVG Export Plug-In . SVG Version: 6.00 Build 0)  -->
<svg version="1.1" id="_x5B_KHAN_x5D__1_" xmlns="http://www.w3.org/2000/svg" xmlns:xlink="http://www.w3.org/1999/xlink" x="0px"
	 y="0px" viewBox="0 0 820 249" style="enable-background:new 0 0 820 249;" xml:space="preserve">
<style type="text/css">
	.st0{fill:#1E2227;}
	.st1{display:none;}
	.st2{display:inline;fill:#D7D7D7;}
</style>
<g id="_x5B_KHAN_x5D__Black">
	<polygon id="_x5B_" class="st0" points="20,22.5 20,231.5 82.1,231.5 76,212.5 41,212.5 41,41.5 76,41.5 82.1,22.5 	"/>
	<polygon id="K" class="st0" points="125,18.5 102,24.5 102,184.5 125,184.5 125,115.5 202.5,189 217.5,175 142,103 209.5,31 
		194.5,17 125,89.5 	"/>
	<polygon id="H" class="st0" points="258,22.5 235,22.5 235,189.5 258,181.5 258,113.5 349,113.5 349,181.6 372,189.5 372,22.5 
		349,22.5 349,93.5 258,93.5 	"/>
	<path id="A" class="st0" d="M474.1,19L462,24.5l-73.5,157.5l19.5,9.5l28-59h68l27,59l20-9L474.1,19z M444,113.5l25.5-55.5
		l25.5,55.5H444z"/>
	<polygon id="N" class="st0" points="586.5,23 569,14.5 569,184.5 592,184.5 592,62.5 701.5,184 718,192.3 718,22.5 695,22.5 
		695,144.5 	"/>
	<polygon id="_x5D_" class="st0" points="743,43.5 736,22.5 800,22.5 800,234.5 736,234.5 742,214.5 778,214.5 778,43.5 	"/>
</g>
<g id="_x5B_KHAN_x5D__White" class="st1">
	<polygon id="_x5B__1_" class="st2" points="20,22.5 20,231.5 82.1,231.5 76,212.5 41,212.5 41,41.5 76,41.5 82.1,22.5 	"/>
	<polygon id="K_1_" class="st2" points="125,18.5 102,24.5 102,184.5 125,184.5 125,115.5 202.5,189 217.5,175 142,103 209.5,31 
		194.5,17 125,89.5 	"/>
	<polygon id="H_1_" class="st2" points="258,22.5 235,22.5 235,189.5 258,181.5 258,113.5 349,113.5 349,181.6 372,189.5 372,22.5 
		349,22.5 349,93.5 258,93.5 	"/>
	<path id="A_1_" class="st2" d="M474.1,19L462,24.5l-73.5,157.5l19.5,9.5l28-59h68l27,59l20-9L474.1,19z M444,113.5l25.5-55.5
		l25.5,55.5H444z"/>
	<polygon id="N_1_" class="st2" points="586.5,23 569,14.5 569,184.5 592,184.5 592,62.5 701.5,184 718,192.3 718,22.5 695,22.5 
		695,144.5 	"/>
	<polygon id="_x5D__1_" class="st2" points="743,43.5 736,22.5 800,22.5 800,234.5 736,234.5 742,214.5 778,214.5 778,43.5 	"/>
</g>
</svg>
