<?xml version="1.0" encoding="utf-8"?>
<!-- Generator: Adobe Illustrator 22.0.0, SVG Export Plug-In . SVG Version: 6.00 Build 0)  -->
<svg version="1.1" xmlns="http://www.w3.org/2000/svg" xmlns:xlink="http://www.w3.org/1999/xlink" x="0px" y="0px"
	 viewBox="0 0 1359.6 768.5" style="enable-background:new 0 0 1359.6 768.5;" xml:space="preserve">
<style type="text/css">
	.st0{opacity:0.52;fill:#FF5A00;}
	.st1{opacity:0.52;fill:#ED1C24;}
	.st2{opacity:0.52;fill:#662D91;}
	.st3{opacity:0.52;fill:#FBB03B;}
	.st4{opacity:0.52;fill:#F15A24;}
	.st5{opacity:0.52;fill:#C1272D;}
	.st6{opacity:0.52;fill:#D9E021;}
	.st7{fill:#24292E;}
	.st8{fill:none;stroke:#000000;stroke-width:4;stroke-miterlimit:10;}
	.st9{fill:#ECF1F6;}
	.st10{fill:none;stroke:#000000;stroke-width:3;stroke-miterlimit:10;}
	.st11{opacity:0.8;fill:none;stroke:#FF0032;stroke-width:4;stroke-miterlimit:10;enable-background:new    ;}
	.st12{fill:#6400FF;}
</style>
<g id="Layer_2">
	<polygon class="st0" points="1303.5,53.9 1295.2,52.3 1289,57.8 1288.1,49.9 1280.6,46.1 1288.4,42.8 1289.9,35 1295.6,40.9 
		1304.1,39.9 1299.8,46.8 	"/>
	<polygon class="st0" points="633.7,614.3 627.3,609.2 618.9,611.3 622.5,604 618,597.4 626.5,598 632.1,591.8 633.9,599.5 
		641.9,602.2 634.4,606.4 	"/>
	<polygon class="st1" points="908.1,95.6 910,92.1 908.2,88.5 912.1,89.3 915,86.4 915.5,90.4 919,92.3 915.4,94 914.7,97.9 912,95 
			"/>
	<polygon class="st1" points="1224.9,24.9 1226.8,21.4 1225,17.8 1228.9,18.6 1231.8,15.8 1232.2,19.8 1235.8,21.6 1232.2,23.3 
		1231.5,27.3 1228.8,24.3 	"/>
	<polygon class="st2" points="1179.5,727 1181.5,723.5 1179.7,719.9 1183.6,720.7 1186.5,717.8 1186.9,721.8 1190.5,723.7 
		1186.9,725.4 1186.2,729.3 1183.5,726.4 	"/>
	<polygon class="st2" points="1313.6,687.9 1317.2,685.6 1317.5,681.7 1320.6,684 1324.6,682.7 1322.9,686.4 1325,689.6 
		1320.9,689.5 1318.2,692.7 1317.4,689 	"/>
	<polygon class="st3" points="252.5,36.6 254.4,33.1 252.6,29.5 256.5,30.3 259.4,27.4 259.8,31.4 263.4,33.3 259.8,35 259.1,38.9 
		256.4,36 	"/>
	<polygon class="st3" points="637.2,72.1 638.4,68.3 635.8,65.1 639.8,65.1 642,61.9 643.4,65.7 647.2,66.9 644.1,69.2 644.3,73.2 
		641,70.8 	"/>
	<polygon class="st4" points="35.3,36.3 27.7,32.7 20.2,36.5 21.5,28.7 15.3,23.2 23.7,21.9 27.3,14.7 31.3,21.8 39.7,22.8 
		33.7,28.5 	"/>
	<polygon class="st4" points="37,91 31.3,93.2 30.3,98.7 26,94.5 19.7,95.2 22.8,90.3 20,85.2 26.2,86.5 30.7,82.6 31.4,88.2 	"/>
	<polygon class="st3" points="1342.3,754 1336.3,748.4 1327.9,749.8 1331.8,742.7 1327.8,735.7 1336.2,737 1342.1,731.2 
		1343.4,739.1 1351.1,742.5 1343.5,746.1 	"/>
	<ellipse class="st0" cx="54.7" cy="28.3" rx="7" ry="6.5"/>
	<ellipse class="st1" cx="299.9" cy="55.1" rx="4.9" ry="4.6"/>
	<ellipse class="st1" cx="17.5" cy="136.4" rx="4.9" ry="4.6"/>
	<ellipse class="st2" cx="1332" cy="60.4" rx="7.6" ry="7.1"/>
	<ellipse class="st2" cx="1156.9" cy="43.6" rx="7.6" ry="7.1"/>
	<ellipse class="st2" cx="1061.5" cy="716.2" rx="7.6" ry="7.1"/>
	<ellipse class="st4" cx="1282.5" cy="737.6" rx="5.3" ry="5"/>
	<polygon class="st2" points="658.9,142.2 649.7,145.3 642.4,139.4 644.1,130.5 653.2,127.5 660.6,133.4 	"/>
	<polygon class="st3" points="65.7,735.9 64.8,732 61,730.2 64.6,728.6 64.9,724.8 68,727.7 72.1,727.2 70.4,730.6 72.6,734 
		68.4,733.2 	"/>
	<polygon class="st4" points="45.4,720 41.4,724.3 43.2,729.6 37.3,727.6 32,730.7 32.4,725.1 27.3,721.7 33.5,720.3 35.6,715.1 
		39.1,719.8 	"/>
	<polygon class="st4" points="36.4,682.7 30.3,684.1 28.3,689.3 24.8,684.6 18.5,684.3 22.4,680 20.6,674.5 26.4,676.7 31.6,673.5 
		31.3,679.2 	"/>
	<ellipse transform="matrix(0.1859 -0.9826 0.9826 0.1859 -560.5511 525.8189)" class="st1" cx="37" cy="601.2" rx="4.5" ry="5"/>
	<polygon class="st2" points="126.3,729.1 119.6,735.5 110.1,733.2 107.2,724.5 113.9,718.2 123.4,720.5 	"/>
	<polygon class="st2" points="95.8,63.1 86.7,66.2 79.3,60.3 81.1,51.4 90.2,48.4 97.6,54.2 	"/>
	<polygon class="st2" points="163,48.7 158.5,50.3 154.9,47.4 155.8,42.9 160.2,41.4 163.8,44.3 	"/>
	<polygon class="st2" points="1350.4,654.5 1345.9,656 1342.3,653.1 1343.2,648.6 1347.7,647.1 1351.2,650 	"/>
	<polygon class="st5" points="1326.1,600.4 1321.6,605.5 1314.6,604.7 1312,598.8 1316.5,593.7 1323.5,594.5 	"/>
	<polygon class="st6" points="1159.1,740.8 1153.8,742.3 1149.4,739.1 1150.3,734.4 1155.6,732.9 1160,736.1 	"/>
	<polygon class="st6" points="1197.4,763.2 1192.1,764.7 1187.7,761.5 1188.6,756.8 1193.9,755.3 1198.3,758.5 	"/>
	<polygon class="st3" points="1341.2,24.7 1335.9,26.2 1331.5,23 1332.4,18.3 1337.7,16.8 1342.1,20 	"/>
	<polygon class="st3" points="1327.1,133.2 1321.8,134.8 1317.4,131.6 1318.3,126.9 1323.7,125.4 1328.1,128.5 	"/>
</g>
<g id="Layer_3">
	<g>
		
			<image style="overflow:visible;opacity:0.2;" width="677" height="757" xlink:href="DA67C1F5.png"  transform="matrix(1 0 0 1 -1.498 10.9869)">
		</image>
		<g>
			<path class="st7" d="M574.8,719.9H97.4c-28.6,0-52-23.4-52-52V110c0-28.6,23.4-52,52-52h477.4c28.6,0,52,23.4,52,52v557.9
				C626.8,696.5,603.4,719.9,574.8,719.9z"/>
			<path class="st8" d="M574.8,719.9H97.4c-28.6,0-52-23.4-52-52V110c0-28.6,23.4-52,52-52h477.4c28.6,0,52,23.4,52,52v557.9
				C626.8,696.5,603.4,719.9,574.8,719.9z"/>
		</g>
	</g>
	<g>
		
			<image style="overflow:visible;opacity:0.2;" width="757" height="757" xlink:href="DA67C1F7.png"  transform="matrix(1 0 0 1 609.502 13.9869)">
		</image>
		<g>
			<path class="st7" d="M1266.2,722.9H708.3c-28.6,0-52-23.4-52-52V112.9c0-28.6,23.4-52,52-52h557.9c28.6,0,52,23.4,52,52v557.9
				C1318.2,699.5,1294.8,722.9,1266.2,722.9z"/>
			<path class="st8" d="M1266.2,722.9H708.3c-28.6,0-52-23.4-52-52V112.9c0-28.6,23.4-52,52-52h557.9c28.6,0,52,23.4,52,52v557.9
				C1318.2,699.5,1294.8,722.9,1266.2,722.9z"/>
		</g>
	</g>
</g>
<g id="Layer_1">
	<title>connected world</title>
	<g>
		
			<image style="overflow:visible;opacity:0.5;" width="493" height="692" xlink:href="DA67C1F2.png"  transform="matrix(1 0 0 1 16.502 56.9869)">
		</image>
		<g>
			<path class="st9" d="M351.7,131.5c-0.4-3.5-1.3-6.9-2.7-10.2c-0.3-1.3-1.2-2.3-2.3-2.9c-0.8-0.2-1.6-0.2-2.3,0l-12,1.8
				c-1,0-2,0.4-2.7,1.1c-1.6,1.6,0,4.3-0.1,6.5c-0.1,2.5-2.3,4.6-4.8,5.3c-2.5,0.5-5.1,0.5-7.6-0.1l-16.7-2.6
				c4.9-1.6,9.3-4.5,12.7-8.4c2.2-2.6,3.4-7.5,0.2-8.7c-0.9-0.3-1.9-0.3-2.9-0.2c-7.6,0.1-13.5-6.3-20.6-8.9
				c-9.3-3.3-19.7-0.2-25.7,7.7l8.9,0.4c0.8,0,1.7,0.2,2.4,0.6c2,1.6-0.5,4.7-0.2,7.2c0.4,3.3,4.7,4,8,4.3s7.4,3,5.8,5.9
				c-16.4,5.7-33.1-11.1-50.4-9c-4.4,0.5-8.5,2.2-12.8,3.3c-26,6.6-53-11-79.6-7.3c-5.9,1-11.7,2.5-17.4,4.6
				c-3.6,1.2-7.4,2.5-10,5.2s-3.6,7.5-1.1,10.4c-6.9,0.6-13.8-0.1-20.4-1.9c3.7,2,5.9,5.9,5.9,10.1c-10.7,1.7-21.2,4.9-31,9.5
				c1.8,3.1,4,5.9,6.4,8.6l-13.6,8.7c4.6,1.2,7,7.4,4.3,11.3c4.8-2.1,7.7-7.6,12.8-8.7c3.3-0.7,6.7,0.6,9.9,1.9s6.6,2.5,9.9,1.6
				s5.7-5.2,3.6-7.9c14-4.1,28.4-6.3,43-6.7c1.1-0.1,2.3,0.1,3.3,0.6c1.9,1.3,1.4,4.2,1.3,6.5c-0.1,2.3,1.7,5.3,3.8,4.3
				c-2.4,2.1-0.4,6.1,2,8.3c2.3,2.2,5.1,5.3,3.7,8.1c-0.4,0.8-1,1.4-1.4,2.1c-1.1,2.2,0.6,4.8,2.6,6.3s4.4,2.5,5.8,4.6
				c1.4,2.1,0.7,5.7-1.7,5.9l-7-8.9c-2.4,2.5-4,5.6-4.7,8.9c7.4,6,8.5,18.4,2.3,25.6c-3.2,3.7-7.7,6-11.6,8.9
				c-3.9,2.9-7.6,7-7.6,11.9c0,8.4-0.7,16.3,2.5,24.1c5.8,14.4,12.6,28.5,20.2,42.1c2,3.6,4.6,7.5,8.6,8.1
				c-5.1-12.4-9.7-25.1-13.8-37.9c2.7,0,5.7,0.2,7.3,2.4c1.3,1.8,1,4.2,1.4,6.4c0.5,2.1,1.4,4.1,2.5,5.9l24.4,43.4
				c2,3.6,4.3,7.5,8.2,8.9c2.5,0.9,5.3,0.8,7.6,2.1c1.8,1.1,3,2.9,4.8,3.9c5.1,2.8,12.3-2.6,17.1,0.8c1.4,1,2.2,2.5,3.5,3.6
				c4.4,3.8,11.7,1.3,16.8,4.1c3.3,1.8,5,5.5,6.8,8.9c4.4,8.4,11.5,16.6,21,17.3c3,0.2,6-0.4,8.9,0.3s5.8,3.2,5.3,6.1
				c-0.8,5,1.7,10.5,1,15.6c-1.2,9.2-14.3,13.3-15.4,22.5c-0.2,2,0.1,4.1-0.3,6.1c-0.6,2.4-2.4,4.4-3.1,6.8c-1.2,4.6,2,9.1,5.6,12.2
				c3.6,3.1,7.9,5.7,9.8,10c2.1,4.5,1.1,9.8,1.7,14.8c1.5,10.8,10.8,18.8,20.4,24c2.9,1.6,6.1,3.1,8,5.8c2.5,3.6,2.2,8.3,3,12.5
				c2,10.4,10.8,19,11,29.6c0.2,7.5-4,14.4-6.5,21.5c-4.8,13.8-3.3,29,4.1,41.6c1.9,3.2,4.1,6.1,5.4,9.6c2.4,6.1,1.6,13.1,3.8,19.3
				c2.9,8.2,10.8,14.9,10,23.6c3.6,7.5,11.5,11.1,19.5,13.4l14.3,4c2.7,0.8,5.6,1.5,8.4,1c2.8-0.6,5.5-2.9,5.4-5.7
				c-7-1.6-14.3-3.3-20-7.5c-5.8-4.3-9.7-11.9-7.6-18.7c1-3.2,3.2-6.8,1.1-9.5c-1.2-1.5-3.3-1.9-4.7-3.3c-2.1-2.1-1.4-5.7,0.1-8.3
				c1.5-2.6,3.6-4.9,4.2-7.8c0.6-3.3-0.9-6.7-3.8-8.5c2.7-1,5.1-2.6,7.1-4.5c1.9-2.1,2.7-5.4,1.3-7.8c4.4,0.6,9.5,0.8,12.3-2.5
				c2.3-2.7,2.1-6.6,1.2-10s-2.4-6.7-2.5-10.2c10,0.5,20.1,0.1,30.1-1c-1.4-4.9-4.7-9-9.1-11.5c4.5-0.8,8.6-6.2,10.1-10.5
				c1.4-4.4,1.1-9.1,0.2-13.6c-0.3-1.2-0.4-2.4-0.1-3.6c0.5-1.6,2.1-2.6,3.6-3.5l22.4-12.9c1.3-0.7,2.6-1.6,3.6-2.6
				c2.4-2.8,2-6.9,0.8-10.4c-1.2-3.4-3.1-6.6-3.6-10.2c-1.4-10.8,10.1-18.5,14-28.6c1.5-4,1.8-8.3,2.1-12.5
				c0.3-4.6,0.3-9.9-3.2-12.8c-3.4-2.8-8.6-2.2-12.1-4.8c-3.2-2.4-4.3-7.1-7.8-9c-3.2-1.8-7.2-0.6-10.8-1.5
				c-6.3-1.5-10.2-8.7-16.6-9.3c-3.6-0.4-7.7,1.4-10.6-0.7c-2.6-1.9-2.7-5.6-3.2-8.7c-1.8-10-9.6-17.9-19.7-19.7
				c-3.7-0.6-7.8-0.4-10.9-2.4c-3.2-2.1-4.7-5.9-7.2-8.8c-4.1-4.6-10.4-6.3-16.4-7.7l-24.3-5.7c-4.3-1-9.9-1.6-12.2,2.2
				c-0.7,1.4-1.2,3-1.4,4.5c-1.8,5.8-7.1,9.9-13.2,10c-2-3.5-5.3-6-9.2-7.1c-2.5-0.7-5.1-0.8-7.5-1.8c-5.2-2.5-7.4-8.8-4.8-14
				c0.1-0.2,0.2-0.4,0.3-0.5c2.9-5.1,2-11.6-2.2-15.7c-4.1-3.7-10.1-4.6-15.7-4.2c-1.5-3.2,1-6.7,3.6-9.1c2.6-2.3,5.8-4.6,6.4-8
				c0.9-5.4-6-9.5-11.3-7.9c-5.2,1.6-8.6,6.7-10.8,11.7c-1.3,2.9-2.3,5.9-4.4,8.3c-2,2.4-5.2,4.2-8.3,3.4c-4.3-1.1-6-6.2-6.9-10.6
				c-1.3-5.8-2.6-11.8-2.3-17.7c0.3-6,2.3-12.1,6.7-16.1c7.2-6.6,18.2-5.9,27.9-4.9c-2.3-2.6-1.7-6.9,0.7-9.3
				c2.6-2.3,6.2-3.2,9.6-2.4c2.9,0.6,5.5,2.2,7.5,4.5c2.8,3.4,3.5,7.9,5.6,11.7s6.8,7.1,10.6,5c3.3-1.8,3.8-6.4,3-10
				c-0.8-3.7-2.6-7.2-2.3-10.9c0.6-7.1,8-11.4,14.5-14.4c6.5-2.9,14-6.9,15-14c0-1.4,0.3-2.8,0.8-4.1c0.7-1.1,1.7-2.1,2.9-2.7
				c19-12.6,38.4-25.3,60.1-32.2c1.1-0.4,1.3,0,2.4-0.2c1.6-0.9,0.5-3.5-1-4.6c-1.5-1-3.6-1.8-4-3.7c-0.3-1.3,0.5-2.7,0.7-4
				c0.5-3.3-3.5-6.4-6.6-5.1c-1.7-2.3,1.7-5,4.5-5.8c8.4-2.3,17-3.7,25.7-4.2c1-0.2,2,0,2.9,0.5c1.5,1,1.3,3.3,0.2,4.8
				c-1,1.4-2.6,2.4-3.9,3.6c-2.9,2.8-3.9,7-2.8,10.8c4.5,2.3,9.5,4.7,14.5,3.9c5-0.8,9.5-6.5,7.1-11c-2.2-4.2-8.8-5.1-9.9-9.8
				c-1.3-5.4,6.3-10.2,4.6-15.5c-0.8-2.3-3.1-3.7-4.8-5.3c-4.3-4.2-5.5-10.6-3.2-16.1c-5.8,1-11.8-0.8-16-5
				c-3.8-3.9-6.9-10-12.3-9.8c-5,0.2-9.3,6-14,4.2c-1.2-0.4-2.4-1.3-3.5-0.8c-0.7,0.5-1.2,1.3-1.3,2.2c-1.2,5.7,0.9,12.2-2.2,17.1
				c-3.4,5.3-11.2,6.1-15.2,10.9c-2.2,2.6-3.1,6.1-5.1,8.9c-2,2.8-6.4,4.5-8.8,2.1c2.5-5.1,1.1-11.2-3.3-14.8
				c-2.3-1.5-4.7-2.7-7.3-3.5c-2.9-1.2-5.6-2.7-8.1-4.5c-1.3-0.8-2.3-1.9-3-3.2c-0.5-1.7-0.5-3.4,0.2-5.1
				c2.5-7.2,8.9-12.5,16.5-13.6c3.3-0.4,7-0.3,9.2-2.8c1.1-1.3,1.7-3.3,3.4-3.8c1.1-0.2,2.2-0.1,3.1,0.4l12.2,4.3
				c1.4,0.6,2.8,0.9,4.3,0.7c1.5-0.2,2.6-1.6,2.5-3.1c-0.4-2-3.5-3-3.2-5c0.2-0.7,0.5-1.3,1-1.7c8.9-9.5,21.5-14.4,34.5-13.6
				c1.5,2.5-0.9,5.5-2.9,7.7s-3.6,6-1.2,7.7c1,0.5,2.1,0.8,3.2,0.7c3,0.4,5.9,1.3,8.6,2.6c4.2,1.8,8.3,3.8,12.4,6
				c-0.4-2.7-0.7-5.5,0.3-8c1-2.5,3.9-4.4,6.4-3.5c2.4,0.9,3.7,4.1,6.2,4.4c3.4,0.4,4.8-4.7,3.4-7.8s-4.3-5.8-4.5-9.2
				c-0.2-2.3,0.7-5.2-1.1-6.6c-0.7-0.4-1.4-0.7-2.2-0.8l-46.4-8.5c-2.8-0.5-6.7-0.1-6.9,2.7c-0.1,1.6,1.3,3.1,0.7,4.5
				c-0.7,1.5-2.8,1.4-4.4,1.9c-2.4,0.8-3.7,3.7-3.4,6.3c0.4,2.6,1.4,5,2.9,7.1C359.3,133,354.8,132.7,351.7,131.5z"/>
			<path class="st10" d="M351.7,131.5c-0.4-3.5-1.3-6.9-2.7-10.2c-0.3-1.3-1.2-2.3-2.3-2.9c-0.8-0.2-1.6-0.2-2.3,0l-12,1.8
				c-1,0-2,0.4-2.7,1.1c-1.6,1.6,0,4.3-0.1,6.5c-0.1,2.5-2.3,4.6-4.8,5.3c-2.5,0.5-5.1,0.5-7.6-0.1l-16.7-2.6
				c4.9-1.6,9.3-4.5,12.7-8.4c2.2-2.6,3.4-7.5,0.2-8.7c-0.9-0.3-1.9-0.3-2.9-0.2c-7.6,0.1-13.5-6.3-20.6-8.9
				c-9.3-3.3-19.7-0.2-25.7,7.7l8.9,0.4c0.8,0,1.7,0.2,2.4,0.6c2,1.6-0.5,4.7-0.2,7.2c0.4,3.3,4.7,4,8,4.3s7.4,3,5.8,5.9
				c-16.4,5.7-33.1-11.1-50.4-9c-4.4,0.5-8.5,2.2-12.8,3.3c-26,6.6-53-11-79.6-7.3c-5.9,1-11.7,2.5-17.4,4.6
				c-3.6,1.2-7.4,2.5-10,5.2s-3.6,7.5-1.1,10.4c-6.9,0.6-13.8-0.1-20.4-1.9c3.7,2,5.9,5.9,5.9,10.1c-10.7,1.7-21.2,4.9-31,9.5
				c1.8,3.1,4,5.9,6.4,8.6l-13.6,8.7c4.6,1.2,7,7.4,4.3,11.3c4.8-2.1,7.7-7.6,12.8-8.7c3.3-0.7,6.7,0.6,9.9,1.9s6.6,2.5,9.9,1.6
				s5.7-5.2,3.6-7.9c14-4.1,28.4-6.3,43-6.7c1.1-0.1,2.3,0.1,3.3,0.6c1.9,1.3,1.4,4.2,1.3,6.5c-0.1,2.3,1.7,5.3,3.8,4.3
				c-2.4,2.1-0.4,6.1,2,8.3c2.3,2.2,5.1,5.3,3.7,8.1c-0.4,0.8-1,1.4-1.4,2.1c-1.1,2.2,0.6,4.8,2.6,6.3s4.4,2.5,5.8,4.6
				c1.4,2.1,0.7,5.7-1.7,5.9l-7-8.9c-2.4,2.5-4,5.6-4.7,8.9c7.4,6,8.5,18.4,2.3,25.6c-3.2,3.7-7.7,6-11.6,8.9
				c-3.9,2.9-7.6,7-7.6,11.9c0,8.4-0.7,16.3,2.5,24.1c5.8,14.4,12.6,28.5,20.2,42.1c2,3.6,4.6,7.5,8.6,8.1
				c-5.1-12.4-9.7-25.1-13.8-37.9c2.7,0,5.7,0.2,7.3,2.4c1.3,1.8,1,4.2,1.4,6.4c0.5,2.1,1.4,4.1,2.5,5.9l24.4,43.4
				c2,3.6,4.3,7.5,8.2,8.9c2.5,0.9,5.3,0.8,7.6,2.1c1.8,1.1,3,2.9,4.8,3.9c5.1,2.8,12.3-2.6,17.1,0.8c1.4,1,2.2,2.5,3.5,3.6
				c4.4,3.8,11.7,1.3,16.8,4.1c3.3,1.8,5,5.5,6.8,8.9c4.4,8.4,11.5,16.6,21,17.3c3,0.2,6-0.4,8.9,0.3s5.8,3.2,5.3,6.1
				c-0.8,5,1.7,10.5,1,15.6c-1.2,9.2-14.3,13.3-15.4,22.5c-0.2,2,0.1,4.1-0.3,6.1c-0.6,2.4-2.4,4.4-3.1,6.8c-1.2,4.6,2,9.1,5.6,12.2
				c3.6,3.1,7.9,5.7,9.8,10c2.1,4.5,1.1,9.8,1.7,14.8c1.5,10.8,10.8,18.8,20.4,24c2.9,1.6,6.1,3.1,8,5.8c2.5,3.6,2.2,8.3,3,12.5
				c2,10.4,10.8,19,11,29.6c0.2,7.5-4,14.4-6.5,21.5c-4.8,13.8-3.3,29,4.1,41.6c1.9,3.2,4.1,6.1,5.4,9.6c2.4,6.1,1.6,13.1,3.8,19.3
				c2.9,8.2,10.8,14.9,10,23.6c3.6,7.5,11.5,11.1,19.5,13.4l14.3,4c2.7,0.8,5.6,1.5,8.4,1c2.8-0.6,5.5-2.9,5.4-5.7
				c-7-1.6-14.3-3.3-20-7.5c-5.8-4.3-9.7-11.9-7.6-18.7c1-3.2,3.2-6.8,1.1-9.5c-1.2-1.5-3.3-1.9-4.7-3.3c-2.1-2.1-1.4-5.7,0.1-8.3
				c1.5-2.6,3.6-4.9,4.2-7.8c0.6-3.3-0.9-6.7-3.8-8.5c2.7-1,5.1-2.6,7.1-4.5c1.9-2.1,2.7-5.4,1.3-7.8c4.4,0.6,9.5,0.8,12.3-2.5
				c2.3-2.7,2.1-6.6,1.2-10s-2.4-6.7-2.5-10.2c10,0.5,20.1,0.1,30.1-1c-1.4-4.9-4.7-9-9.1-11.5c4.5-0.8,8.6-6.2,10.1-10.5
				c1.4-4.4,1.1-9.1,0.2-13.6c-0.3-1.2-0.4-2.4-0.1-3.6c0.5-1.6,2.1-2.6,3.6-3.5l22.4-12.9c1.3-0.7,2.6-1.6,3.6-2.6
				c2.4-2.8,2-6.9,0.8-10.4c-1.2-3.4-3.1-6.6-3.6-10.2c-1.4-10.8,10.1-18.5,14-28.6c1.5-4,1.8-8.3,2.1-12.5
				c0.3-4.6,0.3-9.9-3.2-12.8c-3.4-2.8-8.6-2.2-12.1-4.8c-3.2-2.4-4.3-7.1-7.8-9c-3.2-1.8-7.2-0.6-10.8-1.5
				c-6.3-1.5-10.2-8.7-16.6-9.3c-3.6-0.4-7.7,1.4-10.6-0.7c-2.6-1.9-2.7-5.6-3.2-8.7c-1.8-10-9.6-17.9-19.7-19.7
				c-3.7-0.6-7.8-0.4-10.9-2.4c-3.2-2.1-4.7-5.9-7.2-8.8c-4.1-4.6-10.4-6.3-16.4-7.7l-24.3-5.7c-4.3-1-9.9-1.6-12.2,2.2
				c-0.7,1.4-1.2,3-1.4,4.5c-1.8,5.8-7.1,9.9-13.2,10c-2-3.5-5.3-6-9.2-7.1c-2.5-0.7-5.1-0.8-7.5-1.8c-5.2-2.5-7.4-8.8-4.8-14
				c0.1-0.2,0.2-0.4,0.3-0.5c2.9-5.1,2-11.6-2.2-15.7c-4.1-3.7-10.1-4.6-15.7-4.2c-1.5-3.2,1-6.7,3.6-9.1c2.6-2.3,5.8-4.6,6.4-8
				c0.9-5.4-6-9.5-11.3-7.9c-5.2,1.6-8.6,6.7-10.8,11.7c-1.3,2.9-2.3,5.9-4.4,8.3c-2,2.4-5.2,4.2-8.3,3.4c-4.3-1.1-6-6.2-6.9-10.6
				c-1.3-5.8-2.6-11.8-2.3-17.7c0.3-6,2.3-12.1,6.7-16.1c7.2-6.6,18.2-5.9,27.9-4.9c-2.3-2.6-1.7-6.9,0.7-9.3
				c2.6-2.3,6.2-3.2,9.6-2.4c2.9,0.6,5.5,2.2,7.5,4.5c2.8,3.4,3.5,7.9,5.6,11.7s6.8,7.1,10.6,5c3.3-1.8,3.8-6.4,3-10
				c-0.8-3.7-2.6-7.2-2.3-10.9c0.6-7.1,8-11.4,14.5-14.4c6.5-2.9,14-6.9,15-14c0-1.4,0.3-2.8,0.8-4.1c0.7-1.1,1.7-2.1,2.9-2.7
				c19-12.6,38.4-25.3,60.1-32.2c1.1-0.4,1.3,0,2.4-0.2c1.6-0.9,0.5-3.5-1-4.6c-1.5-1-3.6-1.8-4-3.7c-0.3-1.3,0.5-2.7,0.7-4
				c0.5-3.3-3.5-6.4-6.6-5.1c-1.7-2.3,1.7-5,4.5-5.8c8.4-2.3,17-3.7,25.7-4.2c1-0.2,2,0,2.9,0.5c1.5,1,1.3,3.3,0.2,4.8
				c-1,1.4-2.6,2.4-3.9,3.6c-2.9,2.8-3.9,7-2.8,10.8c4.5,2.3,9.5,4.7,14.5,3.9c5-0.8,9.5-6.5,7.1-11c-2.2-4.2-8.8-5.1-9.9-9.8
				c-1.3-5.4,6.3-10.2,4.6-15.5c-0.8-2.3-3.1-3.7-4.8-5.3c-4.3-4.2-5.5-10.6-3.2-16.1c-5.8,1-11.8-0.8-16-5
				c-3.8-3.9-6.9-10-12.3-9.8c-5,0.2-9.3,6-14,4.2c-1.2-0.4-2.4-1.3-3.5-0.8c-0.7,0.5-1.2,1.3-1.3,2.2c-1.2,5.7,0.9,12.2-2.2,17.1
				c-3.4,5.3-11.2,6.1-15.2,10.9c-2.2,2.6-3.1,6.1-5.1,8.9c-2,2.8-6.4,4.5-8.8,2.1c2.5-5.1,1.1-11.2-3.3-14.8
				c-2.3-1.5-4.7-2.7-7.3-3.5c-2.9-1.2-5.6-2.7-8.1-4.5c-1.3-0.8-2.3-1.9-3-3.2c-0.5-1.7-0.5-3.4,0.2-5.1
				c2.5-7.2,8.9-12.5,16.5-13.6c3.3-0.4,7-0.3,9.2-2.8c1.1-1.3,1.7-3.3,3.4-3.8c1.1-0.2,2.2-0.1,3.1,0.4l12.2,4.3
				c1.4,0.6,2.8,0.9,4.3,0.7c1.5-0.2,2.6-1.6,2.5-3.1c-0.4-2-3.5-3-3.2-5c0.2-0.7,0.5-1.3,1-1.7c8.9-9.5,21.5-14.4,34.5-13.6
				c1.5,2.5-0.9,5.5-2.9,7.7s-3.6,6-1.2,7.7c1,0.5,2.1,0.8,3.2,0.7c3,0.4,5.9,1.3,8.6,2.6c4.2,1.8,8.3,3.8,12.4,6
				c-0.4-2.7-0.7-5.5,0.3-8c1-2.5,3.9-4.4,6.4-3.5c2.4,0.9,3.7,4.1,6.2,4.4c3.4,0.4,4.8-4.7,3.4-7.8s-4.3-5.8-4.5-9.2
				c-0.2-2.3,0.7-5.2-1.1-6.6c-0.7-0.4-1.4-0.7-2.2-0.8l-46.4-8.5c-2.8-0.5-6.7-0.1-6.9,2.7c-0.1,1.6,1.3,3.1,0.7,4.5
				c-0.7,1.5-2.8,1.4-4.4,1.9c-2.4,0.8-3.7,3.7-3.4,6.3c0.4,2.6,1.4,5,2.9,7.1C359.3,133,354.8,132.7,351.7,131.5z"/>
		</g>
	</g>
	<g>
		
			<image style="overflow:visible;opacity:0.5;" width="118" height="106" xlink:href="DA67C1F3.png"  transform="matrix(1 0 0 1 251.502 44.9869)">
		</image>
		<g>
			<path class="st9" d="M314.8,92.1c-6-2-12.6,0-16.5,4.9c-0.8,1-1.4,2.4-0.8,3.5c0.9,1.6,3.3,0.9,5,0.4c2.5-0.9,5.3-1,7.9-0.2
				c1.6,0.6,3.1,1.5,4.7,2.1c1.6,0.7,3.5,0.4,4.8-0.7c1.1-1.1,1.2-2.9,1.2-4.5c0.2-1.1-0.2-2.2-0.9-3c-0.6-0.4-1.4-0.6-2.1-0.6
				c-1.7-0.3-3.2-1.2-4.3-2.5"/>
			<path class="st10" d="M314.8,92.1c-6-2-12.6,0-16.5,4.9c-0.8,1-1.4,2.4-0.8,3.5c0.9,1.6,3.3,0.9,5,0.4c2.5-0.9,5.3-1,7.9-0.2
				c1.6,0.6,3.1,1.5,4.7,2.1c1.6,0.7,3.5,0.4,4.8-0.7c1.1-1.1,1.2-2.9,1.2-4.5c0.2-1.1-0.2-2.2-0.9-3c-0.6-0.4-1.4-0.6-2.1-0.6
				c-1.7-0.3-3.2-1.2-4.3-2.5"/>
		</g>
	</g>
	<g>
		
			<image style="overflow:visible;opacity:0.5;" width="105" height="100" xlink:href="DA67C1FD.png"  transform="matrix(1 0 0 1 281.502 40.9869)">
		</image>
		<g>
			<path class="st9" d="M331.5,87.5c-2.1-0.1-3.9,1.5-4,3.6c0,0.6,0.1,1.2,0.3,1.8c2,0.5,4.1,0.7,6.2,0.4c2.1-0.3,3.8-1.9,4.3-4
				c-2.4,0.4-4.9,0-7-1.3"/>
			<path class="st10" d="M331.5,87.5c-2.1-0.1-3.9,1.5-4,3.6c0,0.6,0.1,1.2,0.3,1.8c2,0.5,4.1,0.7,6.2,0.4c2.1-0.3,3.8-1.9,4.3-4
				c-2.4,0.4-4.9,0-7-1.3"/>
		</g>
	</g>
	<g>
		
			<image style="overflow:visible;opacity:0.5;" width="180" height="122" xlink:href="DA67C1FF.png"  transform="matrix(1 0 0 1 323.502 28.9869)">
		</image>
		<g>
			<path class="st9" d="M387.6,79.7c-5.5,1.2-10.8,3-15.8,5.4c4.9,1.9,8,6.7,7.6,11.9c-0.2,1-0.2,2,0.1,3c0.6,1.4,2.3,1.9,3.7,2.3
				c2.7,0.8,5.4,1.2,8.2,1c2.8-0.1,5.4-1.7,6.8-4.2c0.4-1.1,0.9-2.3,1.4-3.3c3.5-5.4,14.1,1.1,17.9-4.1c1.3-1.8,1.2-4.6,3-6.1
				c0.9-0.6,2-1,3.1-1.2c7.7-1.5,15.4-2.6,23.2-3.3c3.7-0.3,8.5-1.6,8.5-5.3c-13.9-2.7-28.3-0.8-41,5.5c-4.6,2.3-10.6,7.1-15,4.1
				c-1.6-1.1-1.6-4.2-3.8-5.5C393.1,78.6,390,79.2,387.6,79.7z"/>
			<path class="st10" d="M387.6,79.7c-5.5,1.2-10.8,3-15.8,5.4c4.9,1.9,8,6.7,7.6,11.9c-0.2,1-0.2,2,0.1,3c0.6,1.4,2.3,1.9,3.7,2.3
				c2.7,0.8,5.4,1.2,8.2,1c2.8-0.1,5.4-1.7,6.8-4.2c0.4-1.1,0.9-2.3,1.4-3.3c3.5-5.4,14.1,1.1,17.9-4.1c1.3-1.8,1.2-4.6,3-6.1
				c0.9-0.6,2-1,3.1-1.2c7.7-1.5,15.4-2.6,23.2-3.3c3.7-0.3,8.5-1.6,8.5-5.3c-13.9-2.7-28.3-0.8-41,5.5c-4.6,2.3-10.6,7.1-15,4.1
				c-1.6-1.1-1.6-4.2-3.8-5.5C393.1,78.6,390,79.2,387.6,79.7z"/>
		</g>
	</g>
	<g>
		
			<image style="overflow:visible;opacity:0.5;" width="248" height="185" xlink:href="DA67C1F0.png"  transform="matrix(1 0 0 1 384.502 27.9869)">
		</image>
		<g>
			<path class="st9" d="M433,88.2l6.5,1.3c-4.7-0.2-8.6,3.4-8.8,8.1c0,0.4,0,0.7,0,1.1c6.1,2,12.8,0.1,19.2,0.3
				c6.4,0.3,13.9,4.9,12.8,11.2c-0.3,1.9-1.4,3.8-0.9,5.7c0.4,1.3,1.6,2.2,2.2,3.4c1.4,2.5,0.3,5.7-1.4,7.9c-1.7,2.3-4,4.1-5.5,6.5
				c-3.7,6-1.6,13.8,0.6,20.5c0.6,2.5,1.8,4.9,3.5,6.9c3.3,3.5,8.7,3.8,13.5,3.9c3.5,0.1,7.5-0.1,9.7-2.8c2.9-3.5,0.9-9,2.8-13.2
				c1.7-3.8,6.1-5.4,10.1-6.5c7.3-2.1,14.7-3.9,21.6-7.1c8.6-3.9,16.6-10.1,26-10.6c2.6-0.1,5.3,0.2,7.9-0.6c2.5-0.7,5-2.9,4.8-5.6
				c-0.2-2.3-2.1-3.9-3.6-5.6c-1.5-1.7-2.7-4.3-1.3-6.1l24.7-4.6c-1.7-4.8-3.1-11,0.9-14.1c1.5-1.1,3.4-1.6,4.6-2.9
				c2.1-2.3,1-6.3-1.4-8.2c-2.4-2-5.7-2.4-8.8-2.7c-10.8-0.9-21.7-0.3-32.5,0.3c-21.2,1.2-42.4,2.3-63.6,3.5
				c-4.3,0.2-9.2-0.1-13.1,1.3c-3.3,1.2-5.7,3.5-9.5,4.3C447,85.2,439.3,84.3,433,88.2z"/>
			<path class="st10" d="M433,88.2l6.5,1.3c-4.7-0.2-8.6,3.4-8.8,8.1c0,0.4,0,0.7,0,1.1c6.1,2,12.8,0.1,19.2,0.3
				c6.4,0.3,13.9,4.9,12.8,11.2c-0.3,1.9-1.4,3.8-0.9,5.7c0.4,1.3,1.6,2.2,2.2,3.4c1.4,2.5,0.3,5.7-1.4,7.9c-1.7,2.3-4,4.1-5.5,6.5
				c-3.7,6-1.6,13.8,0.6,20.5c0.6,2.5,1.8,4.9,3.5,6.9c3.3,3.5,8.7,3.8,13.5,3.9c3.5,0.1,7.5-0.1,9.7-2.8c2.9-3.5,0.9-9,2.8-13.2
				c1.7-3.8,6.1-5.4,10.1-6.5c7.3-2.1,14.7-3.9,21.6-7.1c8.6-3.9,16.6-10.1,26-10.6c2.6-0.1,5.3,0.2,7.9-0.6c2.5-0.7,5-2.9,4.8-5.6
				c-0.2-2.3-2.1-3.9-3.6-5.6c-1.5-1.7-2.7-4.3-1.3-6.1l24.7-4.6c-1.7-4.8-3.1-11,0.9-14.1c1.5-1.1,3.4-1.6,4.6-2.9
				c2.1-2.3,1-6.3-1.4-8.2c-2.4-2-5.7-2.4-8.8-2.7c-10.8-0.9-21.7-0.3-32.5,0.3c-21.2,1.2-42.4,2.3-63.6,3.5
				c-4.3,0.2-9.2-0.1-13.1,1.3c-3.3,1.2-5.7,3.5-9.5,4.3C447,85.2,439.3,84.3,433,88.2z"/>
		</g>
	</g>
	<g>
		
			<image style="overflow:visible;opacity:0.5;" width="123" height="111" xlink:href="DA67C1F1.png"  transform="matrix(1 0 0 1 501.502 88.9869)">
		</image>
		<g>
			<path class="st9" d="M549.9,139.7c-0.7-0.1-1.3,0-1.9,0.4c-0.4,0.4-0.6,0.9-0.6,1.5c-0.4,2.4,0.1,4.9,1.4,6.9
				c1.4,2,3.7,3.2,6.2,3c2.9-0.4,5.1-2.9,7.8-4.1c4.2-1.9,21.8-4.8,9.6-11.4c-4.2-2.3-6.9-0.3-10.3,1.2
				C558.3,139.2,554.1,140,549.9,139.7z"/>
			<path class="st10" d="M549.9,139.7c-0.7-0.1-1.3,0-1.9,0.4c-0.4,0.4-0.6,0.9-0.6,1.5c-0.4,2.4,0.1,4.9,1.4,6.9
				c1.4,2,3.7,3.2,6.2,3c2.9-0.4,5.1-2.9,7.8-4.1c4.2-1.9,21.8-4.8,9.6-11.4c-4.2-2.3-6.9-0.3-10.3,1.2
				C558.3,139.2,554.1,140,549.9,139.7z"/>
		</g>
	</g>
	<g>
		
			<image style="overflow:visible;opacity:0.5;" width="131" height="115" xlink:href="DA67C1F6.png"  transform="matrix(1 0 0 1 607.502 33.9869)">
		</image>
		<g>
			<path class="st9" d="M656.9,84.5c-1.4,0.6-2.6,1.6-3.4,3c-0.7,1.4-0.2,3.1,1.1,4c0.5,0.2,1.1,0.3,1.7,0.3l5.8,0.2
				c2.5,0.1,5.5,0.6,6.2,3c0.5,1.8-0.6,4,0.7,5.3c0.6,0.4,1.3,0.7,2,0.8c1.9,0.5,3.9,0.6,5.8,0.2c4.2-1.1,2-3.7,3.3-6
				c2-3.5,1.7-1.4,5.3-3.4c2.6-1.5,6.1-4.2,3.9-8C685.5,77.1,662.6,81.6,656.9,84.5z"/>
			<path class="st10" d="M656.9,84.5c-1.4,0.6-2.6,1.6-3.4,3c-0.7,1.4-0.2,3.1,1.1,4c0.5,0.2,1.1,0.3,1.7,0.3l5.8,0.2
				c2.5,0.1,5.5,0.6,6.2,3c0.5,1.8-0.6,4,0.7,5.3c0.6,0.4,1.3,0.7,2,0.8c1.9,0.5,3.9,0.6,5.8,0.2c4.2-1.1,2-3.7,3.3-6
				c2-3.5,1.7-1.4,5.3-3.4c2.6-1.5,6.1-4.2,3.9-8C685.5,77.1,662.6,81.6,656.9,84.5z"/>
		</g>
	</g>
	<g>
		
			<image style="overflow:visible;opacity:0.5;" width="133" height="105" xlink:href="90FF087E.png"  transform="matrix(1 0 0 1 696.502 34.9869)">
		</image>
		<g>
			<path class="st9" d="M771.5,81.1l-3.4,0.4c-7.6,1-15.2,2-22.6,4.3c3.2,1.3,6.5,2.1,9.9,2.4c1.9,0.1,3.7,0.4,5.5,0.8
				c3.2,1,6.5,3.4,9.6,2.2c1.9-0.8,2.6-2.8,4.2-3.9c1.1-0.7,5.3-1.9,5.8-2.7C784.3,78.7,774.4,80.7,771.5,81.1z"/>
			<path class="st10" d="M771.5,81.1l-3.4,0.4c-7.6,1-15.2,2-22.6,4.3c3.2,1.3,6.5,2.1,9.9,2.4c1.9,0.1,3.7,0.4,5.5,0.8
				c3.2,1,6.5,3.4,9.6,2.2c1.9-0.8,2.6-2.8,4.2-3.9c1.1-0.7,5.3-1.9,5.8-2.7C784.3,78.7,774.4,80.7,771.5,81.1z"/>
		</g>
	</g>
	<g>
		
			<image style="overflow:visible;opacity:0.5;" width="128" height="123" xlink:href="90FF0879.png"  transform="matrix(1 0 0 1 724.502 46.9869)">
		</image>
		<g>
			<path class="st9" d="M786.3,96.5c-4.5,2.5-8.7,5.6-12.4,9.1c-1.6,1.5-3.2,3.3-3.1,5.5c0.2,2.9,3.3,4.6,5.9,5.7l10.8,4.6
				c1.3-1.8,0.1-4.4-1.2-6.2c-1.4-1.8-3-3.9-2.4-6.1c0.7-2.5,3.7-3.3,6.3-3.8c4.1-0.7,15.3-0.6,14-7.3
				C802.5,90.1,790.4,94.1,786.3,96.5z"/>
			<path class="st10" d="M786.3,96.5c-4.5,2.5-8.7,5.6-12.4,9.1c-1.6,1.5-3.2,3.3-3.1,5.5c0.2,2.9,3.3,4.6,5.9,5.7l10.8,4.6
				c1.3-1.8,0.1-4.4-1.2-6.2c-1.4-1.8-3-3.9-2.4-6.1c0.7-2.5,3.7-3.3,6.3-3.8c4.1-0.7,15.3-0.6,14-7.3
				C802.5,90.1,790.4,94.1,786.3,96.5z"/>
		</g>
	</g>
	<g>
		
			<image style="overflow:visible;opacity:0.5;" width="126" height="152" xlink:href="90FF087A.png"  transform="matrix(1 0 0 1 737.502 449.9869)">
		</image>
		<g>
			<path class="st9" d="M784.1,541.5c-1,3-1.1,6.5,0.7,9.1c2,2.9,6,4,9.4,3.3c3.4-0.9,6.5-2.9,8.7-5.6c2.1-2.3,3.8-4.9,5-7.7
				c1.8-4.4,3-9,3.7-13.6l3.3-17.6c0.7-3.9,0.7-16-6.5-12c-2,1.1-6.5,9.5-8.6,11.9c-3.7,4.3-4.2,8.5-6.2,13.8
				C791.3,529.5,786.4,534.9,784.1,541.5z"/>
			<path class="st10" d="M784.1,541.5c-1,3-1.1,6.5,0.7,9.1c2,2.9,6,4,9.4,3.3c3.4-0.9,6.5-2.9,8.7-5.6c2.1-2.3,3.8-4.9,5-7.7
				c1.8-4.4,3-9,3.7-13.6l3.3-17.6c0.7-3.9,0.7-16-6.5-12c-2,1.1-6.5,9.5-8.6,11.9c-3.7,4.3-4.2,8.5-6.2,13.8
				C791.3,529.5,786.4,534.9,784.1,541.5z"/>
		</g>
	</g>
	<g>
		
			<image style="overflow:visible;opacity:0.5;" width="116" height="115" xlink:href="90FF0878.png"  transform="matrix(1 0 0 1 1108.5021 580.9869)">
		</image>
		<g>
			<path class="st9" d="M1165.2,631.4c-2.4-0.9-4.7-2-6.9-3.3c-2.2,6.1-3.4,12.5-3.5,18.9l16.2-9.1c2.4-1.4,5.2-3.3,5.1-6.1
				c0-0.7-0.3-1.4-0.9-1.7c-0.4-0.1-0.8-0.2-1.1-0.1c-2.4,0.2-4.6,1.4-6.8,2.2c-2.3,0.8-4.9,1.3-7,0"/>
			<path class="st10" d="M1165.2,631.4c-2.4-0.9-4.7-2-6.9-3.3c-2.2,6.1-3.4,12.5-3.5,18.9l16.2-9.1c2.4-1.4,5.2-3.3,5.1-6.1
				c0-0.7-0.3-1.4-0.9-1.7c-0.4-0.1-0.8-0.2-1.1-0.1c-2.4,0.2-4.6,1.4-6.8,2.2c-2.3,0.8-4.9,1.3-7,0"/>
		</g>
	</g>
	<g>
		
			<image style="overflow:visible;opacity:0.5;" width="137" height="119" xlink:href="90FF0876.png"  transform="matrix(1 0 0 1 1178.5021 584.9869)">
		</image>
		<g>
			<path class="st9" d="M1250.4,636.8c-1.8,0.5-3.5,1.1-5.2,1.9c-3.7,1.9-6.2,5.5-9.6,8c-3.2,2.4-7,3.7-10.8,5c-1.1,1-0.6,3,0.6,3.8
				c1.3,0.7,2.8,1.1,4.3,1c3.9,0.1,8,0.1,11.5-1.8c1.9-1.3,3.7-2.7,5.4-4.3c4-3.3,8.8-5.6,13.6-7.7c1.7-0.7,3.3-1.6,4.7-2.8
				c3-3,3.2-7.5-1.1-8.5C1260.3,630.4,1253.7,635.7,1250.4,636.8z"/>
			<path class="st10" d="M1250.4,636.8c-1.8,0.5-3.5,1.1-5.2,1.9c-3.7,1.9-6.2,5.5-9.6,8c-3.2,2.4-7,3.7-10.8,5
				c-1.1,1-0.6,3,0.6,3.8c1.3,0.7,2.8,1.1,4.3,1c3.9,0.1,8,0.1,11.5-1.8c1.9-1.3,3.7-2.7,5.4-4.3c4-3.3,8.8-5.6,13.6-7.7
				c1.7-0.7,3.3-1.6,4.7-2.8c3-3,3.2-7.5-1.1-8.5C1260.3,630.4,1253.7,635.7,1250.4,636.8z"/>
		</g>
	</g>
	<g>
		
			<image style="overflow:visible;opacity:0.5;" width="119" height="124" xlink:href="90FF0869.png"  transform="matrix(1 0 0 1 1227.5021 552.9869)">
		</image>
		<g>
			<path class="st9" d="M1288,612.2c0.4-4.1-1.1-8.2-4.1-11c0,4.1-0.2,8.4-2.5,11.8c-1.6,2.4-4.2,4-6,6.3c-1.8,2.3-2.6,5.9-0.5,7.9
				c1.3,1,3,1.6,4.7,1.6c4.2,0.5,9,0.8,11.9-2.2c1.6-1.6,2.4-4.1,4.3-5.3c0.7-0.3,1.4-0.8,1.9-1.4c0.8-1.3-0.5-3-1.9-3.4
				c-1.4-0.5-3-0.2-4.5-0.7c-1.4-0.4-2.8-2.1-2-3.4"/>
			<path class="st10" d="M1288,612.2c0.4-4.1-1.1-8.2-4.1-11c0,4.1-0.2,8.4-2.5,11.8c-1.6,2.4-4.2,4-6,6.3c-1.8,2.3-2.6,5.9-0.5,7.9
				c1.3,1,3,1.6,4.7,1.6c4.2,0.5,9,0.8,11.9-2.2c1.6-1.6,2.4-4.1,4.3-5.3c0.7-0.3,1.4-0.8,1.9-1.4c0.8-1.3-0.5-3-1.9-3.4
				c-1.4-0.5-3-0.2-4.5-0.7c-1.4-0.4-2.8-2.1-2-3.4"/>
		</g>
	</g>
	<g>
		
			<image style="overflow:visible;opacity:0.5;" width="175" height="136" xlink:href="90FF086A.png"  transform="matrix(1 0 0 1 1109.5021 402.9869)">
		</image>
		<g>
			<path class="st9" d="M1221.1,463.1c-2.2,0.5-4.5,0.7-6.7,0.4c-3.7-0.7-6.6-3.5-9.6-5.8c-7.1-5.4-15.8-8.4-24.7-8.6
				c-8.1-0.2-16.4,2.1-24.4,0.5c0.5,2.9,3,5.1,5.7,6.4s5.6,1.9,8.2,3.2c4.3,2.1,7.7,5.6,9.5,9.9c0.9,2,1.4,4.2,2.7,5.9
				c2.7,3.6,7.7,4.4,12.1,4.1c5.8-0.4,11.9-2,17.2,0.1c4.1,1.7,7.1,5.3,10.5,8.1c3.4,2.8,8.3,4.9,12.3,2.9
				c-8.4-2.7-14.1-10.6-14-19.5c3.9,0.4,15.1,0.2,14.5-6.4C1234,458.7,1224.5,462.5,1221.1,463.1z"/>
			<path class="st10" d="M1221.1,463.1c-2.2,0.5-4.5,0.7-6.7,0.4c-3.7-0.7-6.6-3.5-9.6-5.8c-7.1-5.4-15.8-8.4-24.7-8.6
				c-8.1-0.2-16.4,2.1-24.4,0.5c0.5,2.9,3,5.1,5.7,6.4s5.6,1.9,8.2,3.2c4.3,2.1,7.7,5.6,9.5,9.9c0.9,2,1.4,4.2,2.7,5.9
				c2.7,3.6,7.7,4.4,12.1,4.1c5.8-0.4,11.9-2,17.2,0.1c4.1,1.7,7.1,5.3,10.5,8.1c3.4,2.8,8.3,4.9,12.3,2.9
				c-8.4-2.7-14.1-10.6-14-19.5c3.9,0.4,15.1,0.2,14.5-6.4C1234,458.7,1224.5,462.5,1221.1,463.1z"/>
		</g>
	</g>
	<g>
		
			<image style="overflow:visible;opacity:0.5;" width="267" height="229" xlink:href="90FF0868.png"  transform="matrix(1 0 0 1 1007.502 442.9869)">
		</image>
		<g>
			<path class="st9" d="M1170.4,508.6c0.7-3.8,4.5-7.1,3.3-10.8c-0.8-2.5-3.7-3.8-6.4-3.8c-2.7-0.1-5.3,0.7-7.9,0.8
				c-1.7-0.1-3.5-0.1-5.2,0.1c-5.3,0.9-8.5,6.4-13.5,8.4c-3,1.2-6.4,1-9.6,1.8c-7.1,1.9-11.6,8.6-16.6,14
				c-8.1,8.7-18.5,14.9-30.1,17.6c-4.1,0.9-8.4,1.5-11.6,4.2c-4.3,3.5-5.3,9.5-6.3,14.9c-2.6,15-6.6,29.7-12,44l16.9,2.2
				c3.2,0.4,6.6,0.8,9.7-0.1c2.3-0.9,4.4-2,6.4-3.4c7.5-4.7,16-7.7,24.8-8.9c4.4-0.6,9.1-0.7,13.2,0.9c4.2,1.6,7.7,5.4,8.1,9.8
				c3.7-1.1,7.7-0.2,10.4,2.5c2.7,2.7,4.4,6.2,5,9.9c0.4,2.3,0.9,5.1,3,6.1c1.8,0.8,3.8-0.1,5.7-0.2c6.5-0.5,11.9,7.1,18.3,5.8
				c6.9-1.4,8.5-11.7,15.2-13.7c3.8-1.2,9.2,0.3,11.1-3.3c1.6-3.2-1.6-6.8-1.3-10.3c0.4-4.3,5.5-6.2,9.5-8
				c13.6-6.4,20.1-24.7,13.5-38.3c-3.9-8-11.6-14.3-13-23.1c-1.1-6.8,1.6-14.7-2.7-20c-2.2-2.7-5.9-4.2-7.2-7.4
				c-0.8-2-0.5-4.3-0.9-6.5s-2.3-4.4-4.4-3.8c-6.2,1.6-8.1,20.7-11.4,25.3C1179.1,521.9,1168.8,517.3,1170.4,508.6z"/>
			<path class="st10" d="M1170.4,508.6c0.7-3.8,4.5-7.1,3.3-10.8c-0.8-2.5-3.7-3.8-6.4-3.8c-2.7-0.1-5.3,0.7-7.9,0.8
				c-1.7-0.1-3.5-0.1-5.2,0.1c-5.3,0.9-8.5,6.4-13.5,8.4c-3,1.2-6.4,1-9.6,1.8c-7.1,1.9-11.6,8.6-16.6,14
				c-8.1,8.7-18.5,14.9-30.1,17.6c-4.1,0.9-8.4,1.5-11.6,4.2c-4.3,3.5-5.3,9.5-6.3,14.9c-2.6,15-6.6,29.7-12,44l16.9,2.2
				c3.2,0.4,6.6,0.8,9.7-0.1c2.3-0.9,4.4-2,6.4-3.4c7.5-4.7,16-7.7,24.8-8.9c4.4-0.6,9.1-0.7,13.2,0.9c4.2,1.6,7.7,5.4,8.1,9.8
				c3.7-1.1,7.7-0.2,10.4,2.5c2.7,2.7,4.4,6.2,5,9.9c0.4,2.3,0.9,5.1,3,6.1c1.8,0.8,3.8-0.1,5.7-0.2c6.5-0.5,11.9,7.1,18.3,5.8
				c6.9-1.4,8.5-11.7,15.2-13.7c3.8-1.2,9.2,0.3,11.1-3.3c1.6-3.2-1.6-6.8-1.3-10.3c0.4-4.3,5.5-6.2,9.5-8
				c13.6-6.4,20.1-24.7,13.5-38.3c-3.9-8-11.6-14.3-13-23.1c-1.1-6.8,1.6-14.7-2.7-20c-2.2-2.7-5.9-4.2-7.2-7.4
				c-0.8-2-0.5-4.3-0.9-6.5s-2.3-4.4-4.4-3.8c-6.2,1.6-8.1,20.7-11.4,25.3C1179.1,521.9,1168.8,517.3,1170.4,508.6z"/>
		</g>
	</g>
	<g>
		
			<image style="overflow:visible;opacity:0.5;" width="183" height="106" xlink:href="90FF086E.png"  transform="matrix(1 0 0 1 1001.502 423.9869)">
		</image>
		<g>
			<path class="st9" d="M1056.4,470.3c-2.1-0.6-4.4-1.2-6.4-0.3c-2,0.8-3.2,3.8-1.6,5.3c12.7-0.5,25.4-1,38,0.7
				c14.5,2,28.8,6.9,43.4,5.5c-8.3-2.5-16.8-4.4-25.3-5.9l-14.2-2.7c-3.8-0.8-7.7-1.4-11.6-1.8
				C1070.5,470.4,1064.3,472.6,1056.4,470.3z"/>
			<path class="st10" d="M1056.4,470.3c-2.1-0.6-4.4-1.2-6.4-0.3c-2,0.8-3.2,3.8-1.6,5.3c12.7-0.5,25.4-1,38,0.7
				c14.5,2,28.8,6.9,43.4,5.5c-8.3-2.5-16.8-4.4-25.3-5.9l-14.2-2.7c-3.8-0.8-7.7-1.4-11.6-1.8
				C1070.5,470.4,1064.3,472.6,1056.4,470.3z"/>
		</g>
	</g>
	<g>
		
			<image style="overflow:visible;opacity:0.5;" width="135" height="140" xlink:href="90FF086B.png"  transform="matrix(1 0 0 1 1010.502 364.9869)">
		</image>
		<g>
			<path class="st9" d="M1069.1,426.2c-1.1-0.1-2.4-0.2-2.9,0.7c-0.5,0.9,0.1,2-0.2,3c-0.4,1.3-2.1,1.7-3.5,1.5
				c-1.4-0.2-2.8-0.6-4.1,0c-1.3,0.9-1.8,2.5-1.3,3.9c0.5,1.4,1.3,2.7,2.3,3.7c1.8,2.3,3.8,4.3,6.1,6.1c4.4,3.2,10.3,4.8,13,9.4
				c0.4,0.9,1,1.7,1.7,2.3c1.3,0.8,3,0.2,4.5-0.4l5-2.3c0.9-0.3,1.7-0.9,2.3-1.6c1.1-1.5,0.4-3.7-0.5-5.4c-1-1.7-2.2-3.4-2-5.3
				c0.4-3.4,4.7-4.7,6.5-7.6c1.8-2.9,0.6-6.7,0.8-10.1c0.2-4,2.8-9.2-1.3-12.2c-3.5-2.6-6.8-0.2-9.2,2.6
				C1081.1,420.5,1078.7,427,1069.1,426.2z"/>
			<path class="st10" d="M1069.1,426.2c-1.1-0.1-2.4-0.2-2.9,0.7c-0.5,0.9,0.1,2-0.2,3c-0.4,1.3-2.1,1.7-3.5,1.5
				c-1.4-0.2-2.8-0.6-4.1,0c-1.3,0.9-1.8,2.5-1.3,3.9c0.5,1.4,1.3,2.7,2.3,3.7c1.8,2.3,3.8,4.3,6.1,6.1c4.4,3.2,10.3,4.8,13,9.4
				c0.4,0.9,1,1.7,1.7,2.3c1.3,0.8,3,0.2,4.5-0.4l5-2.3c0.9-0.3,1.7-0.9,2.3-1.6c1.1-1.5,0.4-3.7-0.5-5.4c-1-1.7-2.2-3.4-2-5.3
				c0.4-3.4,4.7-4.7,6.5-7.6c1.8-2.9,0.6-6.7,0.8-10.1c0.2-4,2.8-9.2-1.3-12.2c-3.5-2.6-6.8-0.2-9.2,2.6
				C1081.1,420.5,1078.7,427,1069.1,426.2z"/>
		</g>
	</g>
	<g>
		
			<image style="overflow:visible;opacity:0.5;" width="124" height="150" xlink:href="90FF088D.png"  transform="matrix(1 0 0 1 1052.5021 307.9869)">
		</image>
		<g>
			<path class="st9" d="M1099.2,366.1c1.7,3.3,5.2,5.2,7.1,8.4c2,3.4,1.8,7.9,4,11.2c2.2,3.4,6.7,5.2,8,9.1
				c1.4,4.2-1.7,9.4,0.7,13.1c1.8,2.4,5.3,2.9,7.7,1c0.1-0.1,0.2-0.2,0.4-0.3c2.2-2.4,2.1-6-0.2-8.2c-1.5-1.3-3.6-1.9-4.8-3.5
				c-0.6-0.9-1.1-1.9-1.2-3c-0.7-3.1-0.6-6.4,0.3-9.5c0.3-0.8,0.4-1.6,0.2-2.5c-0.6-1.6-2.7-1.7-4.2-2.5c-3.5-1.7-3.4-6.6-2.8-10.4
				c-0.4,2.5-9.4-1.8-10.3-3.2c-1.9-2.8-0.9-8.3-1.2-11.5C1098.7,356.4,1097.2,362.2,1099.2,366.1z"/>
			<path class="st10" d="M1099.2,366.1c1.7,3.3,5.2,5.2,7.1,8.4c2,3.4,1.8,7.9,4,11.2c2.2,3.4,6.7,5.2,8,9.1
				c1.4,4.2-1.7,9.4,0.7,13.1c1.8,2.4,5.3,2.9,7.7,1c0.1-0.1,0.2-0.2,0.4-0.3c2.2-2.4,2.1-6-0.2-8.2c-1.5-1.3-3.6-1.9-4.8-3.5
				c-0.6-0.9-1.1-1.9-1.2-3c-0.7-3.1-0.6-6.4,0.3-9.5c0.3-0.8,0.4-1.6,0.2-2.5c-0.6-1.6-2.7-1.7-4.2-2.5c-3.5-1.7-3.4-6.6-2.8-10.4
				c-0.4,2.5-9.4-1.8-10.3-3.2c-1.9-2.8-0.9-8.3-1.2-11.5C1098.7,356.4,1097.2,362.2,1099.2,366.1z"/>
		</g>
	</g>
	<g>
		
			<image style="overflow:visible;opacity:0.5;" width="142" height="145" xlink:href="90FF088F.png"  transform="matrix(1 0 0 1 954.502 366.9869)">
		</image>
		<g>
			<path class="st9" d="M1008.6,416.1c-1.7-1.9-4.2-3.8-6.4-2.7c-1.7,0.9-2.2,3.2-1.5,5c0.8,1.7,2.1,3.2,3.6,4.3
				c4.6,3.8,9.6,7.3,13.7,11.7c7.2,8,11.1,18.7,19,26c1.6,1.7,3.7,2.8,6,3.2c2.3,0.2,4.9-1.3,5.1-3.5c0.2-1.9-1.1-3.6-2.4-5
				c-3.1-3.3-6.4-6.4-9.3-9.9c-1.3-1.3-2.2-3.1-2.4-5c0-1.9,1.7-3.8,3.5-3.4c-2.2-0.6-3.8-4.2-7.1-4.9c-2.7-0.6-3.4,1.1-6.6-0.3
				C1017.7,429.2,1012.9,421,1008.6,416.1z"/>
			<path class="st10" d="M1008.6,416.1c-1.7-1.9-4.2-3.8-6.4-2.7c-1.7,0.9-2.2,3.2-1.5,5c0.8,1.7,2.1,3.2,3.6,4.3
				c4.6,3.8,9.6,7.3,13.7,11.7c7.2,8,11.1,18.7,19,26c1.6,1.7,3.7,2.8,6,3.2c2.3,0.2,4.9-1.3,5.1-3.5c0.2-1.9-1.1-3.6-2.4-5
				c-3.1-3.3-6.4-6.4-9.3-9.9c-1.3-1.3-2.2-3.1-2.4-5c0-1.9,1.7-3.8,3.5-3.4c-2.2-0.6-3.8-4.2-7.1-4.9c-2.7-0.6-3.4,1.1-6.6-0.3
				C1017.7,429.2,1012.9,421,1008.6,416.1z"/>
		</g>
	</g>
	<g>
		
			<image style="overflow:visible;opacity:0.5;" width="134" height="162" xlink:href="90FF088C.png"  transform="matrix(1 0 0 1 1074.5021 186.9869)">
		</image>
		<g>
			<path class="st9" d="M1153,235c-1.8-0.5-3.5-1.1-5.2-1.9c-4.6-1.4-10.6,2-10,6.7c0.4,3.1,3.3,5.3,4.9,8c2.4,4,1.8,9.2,0.5,13.7
				c-0.3,1.4-0.9,2.7-1.7,3.9c-1.2,1.2-2.6,2.2-4.1,2.9c-6.2,3.5-11.6,8.1-16,13.6c-0.5,0.5-0.8,1.1-1,1.8c-0.2,1.6,1.4,2.8,2.3,4.1
				c2,3,0.6,6.9,0.8,10.5c-0.1,1,0.4,2,1.3,2.6c1.2,0.6,2.7-0.4,3.3-1.6c2.2-4,0.5-10.3,4.6-12.2c0.8-0.4,1.7-0.5,2.2-1.2
				c0.8-1.1,0-2.7,0.4-4c0.6-1.9,3.3-2,5.3-1.9c3.5,0.1,7-0.3,10.4-1.4c1.3-0.3,2.5-1,3.4-2c1.2-1.5,1.1-3.7,0.9-5.6
				c-1.2-9.7-4.3-19.1-9-27.6c3.6,0.5,7.5,0.9,10.6-1c1.7-1.1,3.8-4.2,3-6.3C1158.5,232.8,1156,235.6,1153,235z"/>
			<path class="st10" d="M1153,235c-1.8-0.5-3.5-1.1-5.2-1.9c-4.6-1.4-10.6,2-10,6.7c0.4,3.1,3.3,5.3,4.9,8c2.4,4,1.8,9.2,0.5,13.7
				c-0.3,1.4-0.9,2.7-1.7,3.9c-1.2,1.2-2.6,2.2-4.1,2.9c-6.2,3.5-11.6,8.1-16,13.6c-0.5,0.5-0.8,1.1-1,1.8c-0.2,1.6,1.4,2.8,2.3,4.1
				c2,3,0.6,6.9,0.8,10.5c-0.1,1,0.4,2,1.3,2.6c1.2,0.6,2.7-0.4,3.3-1.6c2.2-4,0.5-10.3,4.6-12.2c0.8-0.4,1.7-0.5,2.2-1.2
				c0.8-1.1,0-2.7,0.4-4c0.6-1.9,3.3-2,5.3-1.9c3.5,0.1,7-0.3,10.4-1.4c1.3-0.3,2.5-1,3.4-2c1.2-1.5,1.1-3.7,0.9-5.6
				c-1.2-9.7-4.3-19.1-9-27.6c3.6,0.5,7.5,0.9,10.6-1c1.7-1.1,3.8-4.2,3-6.3C1158.5,232.8,1156,235.6,1153,235z"/>
		</g>
	</g>
	<g>
		
			<image style="overflow:visible;opacity:0.5;" width="368" height="431" xlink:href="90FF088B.png"  transform="matrix(1 0 0 1 497.502 216.9869)">
		</image>
		<g>
			<path class="st9" d="M691.6,288.3c0.4,2.3,0.9,4.7,0.1,7c-0.8,2.2-3.1,4.1-5.4,3.4c-1.7-0.5-2.8-2.3-4-3.6
				c-6.9-7.4-22.4-3.1-26.7-12.3c-1.7-3.8-0.6-8.3-1.7-12.2c-1.5-4.7-6.1-7.8-11-7.5c-2.2,0.3-4.3,1-6.3,1.9
				c-13.5,5.4-27.6,8.9-42,10.5c-2.7,0.2-5.4,0.7-8.1,1.5c-5.9,2.1-10,7.6-12.8,13.2c-2.9,5.6-5,11.7-8.9,16.6
				c-4.1,5.2-9.7,8.9-15,12.8c-2,1.3-3.7,3.1-5,5.2c-1.1,2.4-1.1,5.1-1,7.7l1.1,31.8c0.1,4.1,0.3,8.3,2.1,12
				c2.3,4.6,6.8,7.6,9.9,11.6c3.2,4.2,4.9,9.3,4.7,14.5c-0.1,2.1-0.3,4.6,1.4,5.9c1,0.6,2.2,1,3.4,1l43.1,3.5
				c7.6,0.6,16,1.6,20.9,7.4c2.3,2.7,4.2,6.6,7.8,6.9c1.5,0.1,3-0.5,4.6-0.6c3.9-0.3,7.3,2.6,9.4,5.9c3.2,4.9,4.7,10.8,4.2,16.7
				c-0.4,3.7-1.5,7.3-1.7,11c-0.9,14.1,11,26.3,11.2,40.4c0.1,8.3-3.8,16.1-7.6,23.4c6.2,9.4,1.1,21.9,3.6,32.9
				c2.3,10.4,11,18.6,13.2,29c1,4.8,1,10.7,5.3,13.1c1.9,0.9,3.9,1.3,6,1.2c12.4,0.1,24.7-2.6,35.8-8.1c5.2-2.6,10.6-6.5,11.5-12.2
				c0.7-4.6-1.6-9.8,0.8-13.9c2.8-4.8,10.1-4.4,14.2-8c6.7-5.9,1.5-17.3,4.2-25.8c2.5-7.7,10.9-11.8,15.1-18.7
				c1.6-3,2.8-6.2,3.5-9.5c1.9-8,3.1-16.1,3.6-24.2c0.1-5,0.5-9.9,1.1-14.8c4.5-28,32.2-46.8,41.2-73.8c0.9-2.6,1.3-6-1-7.5
				c-1.4-0.6-2.9-0.8-4.4-0.5l-19.9,2.5c-2.5,0.3-5.1,0.6-7.3-0.4s-3.9-3.9-2.7-6.1c3.4-6.1-3.6-13.8-6.6-20.1
				c-8.3-16.9-18.2-32.9-29.5-47.9c-0.7-0.8-1.2-1.8-1.3-2.8l5.6,0.2c-1.9-6.8-5-14.3-11.7-16.8c-3.7-1.4-7.9-0.9-11.9-0.7
				C715.2,291.8,702.9,290.1,691.6,288.3z"/>
			<path class="st10" d="M691.6,288.3c0.4,2.3,0.9,4.7,0.1,7c-0.8,2.2-3.1,4.1-5.4,3.4c-1.7-0.5-2.8-2.3-4-3.6
				c-6.9-7.4-22.4-3.1-26.7-12.3c-1.7-3.8-0.6-8.3-1.7-12.2c-1.5-4.7-6.1-7.8-11-7.5c-2.2,0.3-4.3,1-6.3,1.9
				c-13.5,5.4-27.6,8.9-42,10.5c-2.7,0.2-5.4,0.7-8.1,1.5c-5.9,2.1-10,7.6-12.8,13.2c-2.9,5.6-5,11.7-8.9,16.6
				c-4.1,5.2-9.7,8.9-15,12.8c-2,1.3-3.7,3.1-5,5.2c-1.1,2.4-1.1,5.1-1,7.7l1.1,31.8c0.1,4.1,0.3,8.3,2.1,12
				c2.3,4.6,6.8,7.6,9.9,11.6c3.2,4.2,4.9,9.3,4.7,14.5c-0.1,2.1-0.3,4.6,1.4,5.9c1,0.6,2.2,1,3.4,1l43.1,3.5
				c7.6,0.6,16,1.6,20.9,7.4c2.3,2.7,4.2,6.6,7.8,6.9c1.5,0.1,3-0.5,4.6-0.6c3.9-0.3,7.3,2.6,9.4,5.9c3.2,4.9,4.7,10.8,4.2,16.7
				c-0.4,3.7-1.5,7.3-1.7,11c-0.9,14.1,11,26.3,11.2,40.4c0.1,8.3-3.8,16.1-7.6,23.4c6.2,9.4,1.1,21.9,3.6,32.9
				c2.3,10.4,11,18.6,13.2,29c1,4.8,1,10.7,5.3,13.1c1.9,0.9,3.9,1.3,6,1.2c12.4,0.1,24.7-2.6,35.8-8.1c5.2-2.6,10.6-6.5,11.5-12.2
				c0.7-4.6-1.6-9.8,0.8-13.9c2.8-4.8,10.1-4.4,14.2-8c6.7-5.9,1.5-17.3,4.2-25.8c2.5-7.7,10.9-11.8,15.1-18.7
				c1.6-3,2.8-6.2,3.5-9.5c1.9-8,3.1-16.1,3.6-24.2c0.1-5,0.5-9.9,1.1-14.8c4.5-28,32.2-46.8,41.2-73.8c0.9-2.6,1.3-6-1-7.5
				c-1.4-0.6-2.9-0.8-4.4-0.5l-19.9,2.5c-2.5,0.3-5.1,0.6-7.3-0.4s-3.9-3.9-2.7-6.1c3.4-6.1-3.6-13.8-6.6-20.1
				c-8.3-16.9-18.2-32.9-29.5-47.9c-0.7-0.8-1.2-1.8-1.3-2.8l5.6,0.2c-1.9-6.8-5-14.3-11.7-16.8c-3.7-1.4-7.9-0.9-11.9-0.7
				C715.2,291.8,702.9,290.1,691.6,288.3z"/>
		</g>
	</g>
	<g>
		
			<image style="overflow:visible;opacity:0.5;" width="715" height="435" xlink:href="90FF0885.png"  transform="matrix(1 0 0 1 534.502 41.9869)">
		</image>
		<g>
			<path class="st9" d="M726.6,134.5c3,3.2,6.3,6.5,10.7,7.1c7.6,1,13.1-6.9,16.6-13.8c0.3,3.6,3.4,6.4,7,6.2c1.9-0.3,3.7-1,5.3-2.1
				c15.1-8.3,32.1-12.7,49.3-12.8c-0.3-2.7,1.4-5.2,4.1-5.9c3.5-0.7,6.7,2.3,8.4,5.5s2.7,6.8,5.4,9.2c2.7,2.4,7.9,2.3,9-1.2
				c1-3.3-2.4-6.1-5.2-8c-2.8-1.9-5.8-5.5-3.9-8.4c14.5-3.2,29.1-6.4,43.9-7.1c2.5,0.1,5-0.3,7.4-1.3c2.3-1.1,4.1-3.6,3.5-6.1
				c-6.6,1.6-13.5-1-17.5-6.6c20.6-1.7,42.5-3.1,60.7,6.5c2.2,4.7-9,8.6-6,12.8c1,1.4,2.9,1.5,4.5,1.5c12.7,0.2,25.4,0.5,37.9-1.4
				c4.6-0.7,9.2-1.7,13.8-1.1c7.7,0.9,14.2,6.1,21.7,7.7c3.1,0.7,6.5,0.7,9.1-1.1c2.6-1.8,3.7-5.8,1.6-8.2c7.1-7,18.9-5.2,28.2-1.9
				c9.4,3.3,18.2,8.7,28.1,9.4c7.1,0.5,14.3-1.4,21.3-0.2c4.4,0.8,8.5,2.7,12.8,3.9c8.1,2.3,16.8,1.8,25.2,1.9
				c21.6,0.3,42.9,4.5,63,12.5c2.6,0.8,5,2.3,7,4.1c1.9,2,2.8,5.1,1.6,7.5l-20.7-3c2,3.8,7,4.5,11.1,5.8c4.1,1.3,8.4,5.9,5.9,9.4
				c-4.4-1.4-8.5,3-10.7,7.1s-5,9-9.6,9.2c-4.2,0.2-9.2-3.3-11.9-0.2c3.8,4.7,7,9.9,9.6,15.3c2.7,5.6,4.6,12.7,1,17.7
				c-0.6,0.9-1.4,1.6-2.5,1.9c-3,0.8-4.9-2.9-7-5.1c-2.7-2.8-6.7-3.6-10.4-4.9s-7.5-3.9-7.7-7.7c-0.2-2.4,1.1-4.6,2-6.8
				c1.6-3.7,2.2-7.8,2-11.8c-0.2-3.2-1.1-6.6-3.4-8.9c-2.3-2.3-6.4-3-8.9-0.9c-1.2,1-2.1,2.5-3.6,2.6c-2.7,0.1-4.7-4.6-6.9-3
				c0.3,1.7-0.1,3.4-1,4.9c-6.4,5.6-16.3,3.2-24.6,5.2c-3.9,1.1-7.7,2.8-11.2,4.9c-1.3,0.6-2.4,1.5-3.2,2.7c-1,2,0.1,4.6,1.9,5.9
				c1.9,1.2,4.1,1.9,6.4,2.2c10.1,1.9,20.4,4.9,28.3,11.4c8,6.5,13.2,17.2,10.7,27.2l-19.9-19c0.8,8,1.2,16,1.3,24.1
				c0.1,1.6-0.1,3.1-0.6,4.6c-1.4,3.1-5.3,4.2-8.6,4.9c-3.7,0.7-6.1,4.2-5.4,7.9c0,0.3,0.1,0.5,0.2,0.8c1.2,3.9,4.2,7,6.9,10
				c2.7,3,5.4,6.5,5.8,10.6c0.4,4.1-2.7,8.7-6.8,8.4c-3.1-0.2-5.4-3-6.7-5.8s-2.1-5.9-4.1-8.3c-6-7.2-19.5-4.1-24.8-11.8
				c-2.8,3.2-3.7,7.5-2.5,11.6c2.5-1.6,5.9-0.1,7.8,2.2c1.9,2.3,2.8,5.2,4.2,7.7c2,3.4,5.2,6.5,5.4,10.5c-0.1,1.5,0,3,0.1,4.5
				c0.5,2.4,2.5,4.1,3.9,6.1c3.3,4.7,3.1,11.1,1,16.4c-2.1,5.3-5.9,9.7-9.7,14c-6.6,7.5-13.3,15-21.1,21.2c-2.2,1.8-4.6,3.5-6,6
				s-1.5,6,0.7,7.9c-1.5,0.1-4.3,0.8-5.8,0.9c-0.5-6.1-0.7-12.2-0.3-18.4c-6-2.9-12.5,4.8-11.7,11.5c0.8,6.6,5.6,11.9,9,17.7
				c2.5,4.2,4.3,9.1,3.5,13.9s-5.1,9.2-10,8.8c-7.7-0.7-11-11.8-18.6-13c-0.7-0.2-1.4-0.1-2,0.2c-1.1,0.6-1.3,2.1-1.4,3.4
				c-0.3,6.3-0.6,12.9,1.9,18.8c3.6,8.6,13,15.7,11,24.8c-10.6-4.9-16.1-16.8-18.6-28.2c-2.5-11.4-2.9-23.4-7.4-34.1
				c-3.4,4.4-10.5,0.8-13.7-3.8c-2.9-4.3-4.8-9.3-7.6-13.7s-7.2-8.3-12.5-8.6c-5.5-0.3-10.2,3.5-14.4,7.1c-3.4,2.9-7,6-9,10
				c-2.9,5.9-2.2,12.8-2.3,19.4c-0.2,7.1-1.7,14.6-6.5,19.8c-4.8,5.2-13.8,7-19.1,2.3c-2.8-2.4-4.1-6.1-5.3-9.6
				c-5.8-16.9-10.6-34.2-14.5-51.6c-0.9,4-4.4,9.1-7.7,6.8c-0.8-0.6-1.4-1.4-1.8-2.3c-6.2-10.6-17.8-16.9-29.5-20.7
				c-11.7-3.8-24-5.6-35.5-9.8c-6.5-2.3-12.6-5.4-18.4-9.2c-3,4.4-3.3,10.1-0.9,14.8c2.6,4.5,8.4,7.2,13.3,5.6
				c2.6-0.8,4.7-2.6,7.3-3.5s6-0.4,7.1,2c1.1,2.3-0.5,5.2,0.3,7.6c1.2,3.7,6.8,4,8.8,7.4c1.5,2.5,0.3,5.9-1.8,7.9
				c-2.1,2-4.9,3.2-7.4,4.6c-8.3,4.6-14.2,12.5-21.4,18.6c-7.2,6.1-17.4,10.6-26.1,6.7c2.1-10.4-10.3-18-12.6-28.4
				c-0.8-3.4-0.4-7-1.4-10.4c-1.6-4.8-5.8-8.1-9.3-11.8c-8.6-9-13.1-21.1-12.7-33.6c0.2-4.3,1-8.6,0-12.8s-4.4-8.2-8.7-8
				c-9.8,0.4-22.1,1.2-27.2-7.2c-1.8-3-2.6-7.3,0-9.6c1.9-1.6,4.6-1.5,7.1-1.2l22,2.2c5.2,0.5,10.7,0.9,15.1-1.8
				c4.4-2.7,6.3-9.8,2.2-13c-3-2.3-8.4-2.2-9.2-5.9c-0.7-3.1,2.7-6.5,0.8-9.1c-1.3-1.8-4.3-1.3-6.1,0s-3.1,3.4-5.1,4.4
				c-3.5,1.8-7.7,0.1-11.5-1.1c-3.8-1.2-8.9-1.3-10.7,2.2c-2.1,3.9,1.8,9.1-0.2,13c-2.7,5.2-11.8,2.2-15.6,6.7
				c-4.3,5.1,3,12.8,1.5,19.4c-3.8,1.9-8.3,1.6-11.9-0.7c-3.5-2.4-5.4-6.5-5-10.7c0.4-3,1.9-6,0.9-8.8c-0.8-2.3-3.1-3.6-5.2-4.8
				l-21.4-11.8c-2,3.7,0.5,8.3,3.7,11s7.1,4.9,9.1,8.5c2.7,5.2,0.9,11.7-4.2,14.7c-0.6,0.4-1.4,0.6-2.1,0.4
				c-0.7-0.4-1.2-1.1-1.4-1.9c-3.8-9.7-9.4-19.2-18.5-24.2c-9.1-5-22.1-4-28,4.5c-1.4,2-2.4,4.3-3.6,6.5
				c-6.5,11.3-20.5,16.7-33.6,16.4c-1.3,0.1-2.6-0.2-3.7-0.9c-2.1-1.5-2-4.6-1.7-7.1l1.4-10.8c0.3-2.2,0.7-4.6,2.4-5.9
				c2.4-1.9,5.9-0.7,9-0.8c4.8-0.2,8.9-3.4,10.4-8c1.3-4.6-0.1-9.5-3.6-12.8c-1.4-1.3-3.3-3-2.6-4.8c0.6-1,1.6-1.7,2.8-1.9
				c5.5-1.6,11.4-2,16.9-3.9s10.7-5.8,12-11.4c0.4-1.7,0.6-3.8,2.1-4.7c0.8-0.3,1.6-0.5,2.5-0.5c6.1-0.9,10.6-6.3,10.3-12.5
				c2.6-1.8,6.3-0.5,8.8,1.5c2.5,1.9,4.8,4.5,7.8,5.3c5.7,1.6,11.3-3.5,17.2-3.5c2.5,0,5.1,0.9,7.4,0c2.4-0.9,3.8-3.2,5.6-5
				c1.8-1.8,5-2.8,6.7-0.9l-1.4-10.7c5.9,1.5,12.1,0.4,17-3.1l-18.6-6.3c-0.6-0.2-1.2-0.5-1.7-0.9c-1.4-1.5,0-3.7,1.1-5.4
				c2.6-4,3.1-10.5-1.3-12.4c-3-1.3-6.3,0.3-9.2,1.8l-13.6,7.6c-0.4,2.6,2.7,4,4.7,5.8c3.2,2.9,3.5,7.8,0.7,11.1
				c-1.5,1.6-3.6,2.6-5.8,2.6c1.8,2.4,2.5,5.4,1.7,8.3l-9.1,0.7c-1,0.2-2.1,0-3-0.6c-1-0.9-0.8-2.4-1.1-3.7
				c-0.5-3.1-3.6-5.3-6.7-5.8c-3.1-0.6-6.3,0.2-9.3,0.9c-1.3,0.5-2.7,0.4-4-0.1c-0.7-0.5-1.3-1.2-1.6-2c-1.3-3.3-0.1-7.1,2.1-9.9
				c2.2-2.8,5.1-4.8,7.8-7.2c6.4-5.6,11-12.8,13.5-20.9c5-2.1,10.2-5,15.3-7.1c7.7-3.9,16.4-5.6,25.1-4.9l17,0.3
				c5,0.1,10.2,0.2,14.9,2.1c4.7,1.9,8.8,6.1,9.1,11.1c0.2,1.2-0.2,2.3-1.1,3.1c-0.7,0.4-1.4,0.5-2.2,0.5
				C733.3,133.1,731.3,134.3,726.6,134.5z"/>
			<path class="st10" d="M726.6,134.5c3,3.2,6.3,6.5,10.7,7.1c7.6,1,13.1-6.9,16.6-13.8c0.3,3.6,3.4,6.4,7,6.2
				c1.9-0.3,3.7-1,5.3-2.1c15.1-8.3,32.1-12.7,49.3-12.8c-0.3-2.7,1.4-5.2,4.1-5.9c3.5-0.7,6.7,2.3,8.4,5.5s2.7,6.8,5.4,9.2
				c2.7,2.4,7.9,2.3,9-1.2c1-3.3-2.4-6.1-5.2-8c-2.8-1.9-5.8-5.5-3.9-8.4c14.5-3.2,29.1-6.4,43.9-7.1c2.5,0.1,5-0.3,7.4-1.3
				c2.3-1.1,4.1-3.6,3.5-6.1c-6.6,1.6-13.5-1-17.5-6.6c20.6-1.7,42.5-3.1,60.7,6.5c2.2,4.7-9,8.6-6,12.8c1,1.4,2.9,1.5,4.5,1.5
				c12.7,0.2,25.4,0.5,37.9-1.4c4.6-0.7,9.2-1.7,13.8-1.1c7.7,0.9,14.2,6.1,21.7,7.7c3.1,0.7,6.5,0.7,9.1-1.1
				c2.6-1.8,3.7-5.8,1.6-8.2c7.1-7,18.9-5.2,28.2-1.9c9.4,3.3,18.2,8.7,28.1,9.4c7.1,0.5,14.3-1.4,21.3-0.2
				c4.4,0.8,8.5,2.7,12.8,3.9c8.1,2.3,16.8,1.8,25.2,1.9c21.6,0.3,42.9,4.5,63,12.5c2.6,0.8,5,2.3,7,4.1c1.9,2,2.8,5.1,1.6,7.5
				l-20.7-3c2,3.8,7,4.5,11.1,5.8c4.1,1.3,8.4,5.9,5.9,9.4c-4.4-1.4-8.5,3-10.7,7.1s-5,9-9.6,9.2c-4.2,0.2-9.2-3.3-11.9-0.2
				c3.8,4.7,7,9.9,9.6,15.3c2.7,5.6,4.6,12.7,1,17.7c-0.6,0.9-1.4,1.6-2.5,1.9c-3,0.8-4.9-2.9-7-5.1c-2.7-2.8-6.7-3.6-10.4-4.9
				s-7.5-3.9-7.7-7.7c-0.2-2.4,1.1-4.6,2-6.8c1.6-3.7,2.2-7.8,2-11.8c-0.2-3.2-1.1-6.6-3.4-8.9c-2.3-2.3-6.4-3-8.9-0.9
				c-1.2,1-2.1,2.5-3.6,2.6c-2.7,0.1-4.7-4.6-6.9-3c0.3,1.7-0.1,3.4-1,4.9c-6.4,5.6-16.3,3.2-24.6,5.2c-3.9,1.1-7.7,2.8-11.2,4.9
				c-1.3,0.6-2.4,1.5-3.2,2.7c-1,2,0.1,4.6,1.9,5.9c1.9,1.2,4.1,1.9,6.4,2.2c10.1,1.9,20.4,4.9,28.3,11.4c8,6.5,13.2,17.2,10.7,27.2
				l-19.9-19c0.8,8,1.2,16,1.3,24.1c0.1,1.6-0.1,3.1-0.6,4.6c-1.4,3.1-5.3,4.2-8.6,4.9c-3.7,0.7-6.1,4.2-5.4,7.9
				c0,0.3,0.1,0.5,0.2,0.8c1.2,3.9,4.2,7,6.9,10c2.7,3,5.4,6.5,5.8,10.6c0.4,4.1-2.7,8.7-6.8,8.4c-3.1-0.2-5.4-3-6.7-5.8
				s-2.1-5.9-4.1-8.3c-6-7.2-19.5-4.1-24.8-11.8c-2.8,3.2-3.7,7.5-2.5,11.6c2.5-1.6,5.9-0.1,7.8,2.2c1.9,2.3,2.8,5.2,4.2,7.7
				c2,3.4,5.2,6.5,5.4,10.5c-0.1,1.5,0,3,0.1,4.5c0.5,2.4,2.5,4.1,3.9,6.1c3.3,4.7,3.1,11.1,1,16.4c-2.1,5.3-5.9,9.7-9.7,14
				c-6.6,7.5-13.3,15-21.1,21.2c-2.2,1.8-4.6,3.5-6,6s-1.5,6,0.7,7.9c-1.5,0.1-4.3,0.8-5.8,0.9c-0.5-6.1-0.7-12.2-0.3-18.4
				c-6-2.9-12.5,4.8-11.7,11.5c0.8,6.6,5.6,11.9,9,17.7c2.5,4.2,4.3,9.1,3.5,13.9s-5.1,9.2-10,8.8c-7.7-0.7-11-11.8-18.6-13
				c-0.7-0.2-1.4-0.1-2,0.2c-1.1,0.6-1.3,2.1-1.4,3.4c-0.3,6.3-0.6,12.9,1.9,18.8c3.6,8.6,13,15.7,11,24.8
				c-10.6-4.9-16.1-16.8-18.6-28.2c-2.5-11.4-2.9-23.4-7.4-34.1c-3.4,4.4-10.5,0.8-13.7-3.8c-2.9-4.3-4.8-9.3-7.6-13.7
				s-7.2-8.3-12.5-8.6c-5.5-0.3-10.2,3.5-14.4,7.1c-3.4,2.9-7,6-9,10c-2.9,5.9-2.2,12.8-2.3,19.4c-0.2,7.1-1.7,14.6-6.5,19.8
				c-4.8,5.2-13.8,7-19.1,2.3c-2.8-2.4-4.1-6.1-5.3-9.6c-5.8-16.9-10.6-34.2-14.5-51.6c-0.9,4-4.4,9.1-7.7,6.8
				c-0.8-0.6-1.4-1.4-1.8-2.3c-6.2-10.6-17.8-16.9-29.5-20.7c-11.7-3.8-24-5.6-35.5-9.8c-6.5-2.3-12.6-5.4-18.4-9.2
				c-3,4.4-3.3,10.1-0.9,14.8c2.6,4.5,8.4,7.2,13.3,5.6c2.6-0.8,4.7-2.6,7.3-3.5s6-0.4,7.1,2c1.1,2.3-0.5,5.2,0.3,7.6
				c1.2,3.7,6.8,4,8.8,7.4c1.5,2.5,0.3,5.9-1.8,7.9c-2.1,2-4.9,3.2-7.4,4.6c-8.3,4.6-14.2,12.5-21.4,18.6
				c-7.2,6.1-17.4,10.6-26.1,6.7c2.1-10.4-10.3-18-12.6-28.4c-0.8-3.4-0.4-7-1.4-10.4c-1.6-4.8-5.8-8.1-9.3-11.8
				c-8.6-9-13.1-21.1-12.7-33.6c0.2-4.3,1-8.6,0-12.8s-4.4-8.2-8.7-8c-9.8,0.4-22.1,1.2-27.2-7.2c-1.8-3-2.6-7.3,0-9.6
				c1.9-1.6,4.6-1.5,7.1-1.2l22,2.2c5.2,0.5,10.7,0.9,15.1-1.8c4.4-2.7,6.3-9.8,2.2-13c-3-2.3-8.4-2.2-9.2-5.9
				c-0.7-3.1,2.7-6.5,0.8-9.1c-1.3-1.8-4.3-1.3-6.1,0s-3.1,3.4-5.1,4.4c-3.5,1.8-7.7,0.1-11.5-1.1c-3.8-1.2-8.9-1.3-10.7,2.2
				c-2.1,3.9,1.8,9.1-0.2,13c-2.7,5.2-11.8,2.2-15.6,6.7c-4.3,5.1,3,12.8,1.5,19.4c-3.8,1.9-8.3,1.6-11.9-0.7
				c-3.5-2.4-5.4-6.5-5-10.7c0.4-3,1.9-6,0.9-8.8c-0.8-2.3-3.1-3.6-5.2-4.8l-21.4-11.8c-2,3.7,0.5,8.3,3.7,11s7.1,4.9,9.1,8.5
				c2.7,5.2,0.9,11.7-4.2,14.7c-0.6,0.4-1.4,0.6-2.1,0.4c-0.7-0.4-1.2-1.1-1.4-1.9c-3.8-9.7-9.4-19.2-18.5-24.2
				c-9.1-5-22.1-4-28,4.5c-1.4,2-2.4,4.3-3.6,6.5c-6.5,11.3-20.5,16.7-33.6,16.4c-1.3,0.1-2.6-0.2-3.7-0.9c-2.1-1.5-2-4.6-1.7-7.1
				l1.4-10.8c0.3-2.2,0.7-4.6,2.4-5.9c2.4-1.9,5.9-0.7,9-0.8c4.8-0.2,8.9-3.4,10.4-8c1.3-4.6-0.1-9.5-3.6-12.8
				c-1.4-1.3-3.3-3-2.6-4.8c0.6-1,1.6-1.7,2.8-1.9c5.5-1.6,11.4-2,16.9-3.9s10.7-5.8,12-11.4c0.4-1.7,0.6-3.8,2.1-4.7
				c0.8-0.3,1.6-0.5,2.5-0.5c6.1-0.9,10.6-6.3,10.3-12.5c2.6-1.8,6.3-0.5,8.8,1.5c2.5,1.9,4.8,4.5,7.8,5.3
				c5.7,1.6,11.3-3.5,17.2-3.5c2.5,0,5.1,0.9,7.4,0c2.4-0.9,3.8-3.2,5.6-5c1.8-1.8,5-2.8,6.7-0.9l-1.4-10.7c5.9,1.5,12.1,0.4,17-3.1
				l-18.6-6.3c-0.6-0.2-1.2-0.5-1.7-0.9c-1.4-1.5,0-3.7,1.1-5.4c2.6-4,3.1-10.5-1.3-12.4c-3-1.3-6.3,0.3-9.2,1.8l-13.6,7.6
				c-0.4,2.6,2.7,4,4.7,5.8c3.2,2.9,3.5,7.8,0.7,11.1c-1.5,1.6-3.6,2.6-5.8,2.6c1.8,2.4,2.5,5.4,1.7,8.3l-9.1,0.7
				c-1,0.2-2.1,0-3-0.6c-1-0.9-0.8-2.4-1.1-3.7c-0.5-3.1-3.6-5.3-6.7-5.8c-3.1-0.6-6.3,0.2-9.3,0.9c-1.3,0.5-2.7,0.4-4-0.1
				c-0.7-0.5-1.3-1.2-1.6-2c-1.3-3.3-0.1-7.1,2.1-9.9c2.2-2.8,5.1-4.8,7.8-7.2c6.4-5.6,11-12.8,13.5-20.9c5-2.1,10.2-5,15.3-7.1
				c7.7-3.9,16.4-5.6,25.1-4.9l17,0.3c5,0.1,10.2,0.2,14.9,2.1c4.7,1.9,8.8,6.1,9.1,11.1c0.2,1.2-0.2,2.3-1.1,3.1
				c-0.7,0.4-1.4,0.5-2.2,0.5C733.3,133.1,731.3,134.3,726.6,134.5z"/>
		</g>
	</g>
	<g>
		
			<image style="overflow:visible;opacity:0.5;" width="111" height="115" xlink:href="90FF0887.png"  transform="matrix(1 0 0 1 530.502 135.9869)">
		</image>
		<g>
			<path class="st9" d="M590.9,187.8c1.4-1.3,1.9-3.2,1.4-5c-3.3-1.3-7-0.6-9.6,1.8c-1,1-1.9,2.2-2.6,3.4c-2.2,3.6-4.2,8-2.9,12.1
				c0.2,0.9,0.8,1.7,1.6,2.1c0.6,0.2,1.2,0.3,1.8,0.3c2.5,0,4.9-0.2,7.4-0.5c1.5-0.2,3.2-0.6,3.8-2c0.8-1.8-1.1-3.9-0.5-5.8
				c0.4-0.9,0.9-1.6,1.6-2.3c0.7-0.6,1-1.6,0.9-2.5c-0.2-0.9-1.6-1.4-2.1-0.6"/>
			<path class="st10" d="M590.9,187.8c1.4-1.3,1.9-3.2,1.4-5c-3.3-1.3-7-0.6-9.6,1.8c-1,1-1.9,2.2-2.6,3.4c-2.2,3.6-4.2,8-2.9,12.1
				c0.2,0.9,0.8,1.7,1.6,2.1c0.6,0.2,1.2,0.3,1.8,0.3c2.5,0,4.9-0.2,7.4-0.5c1.5-0.2,3.2-0.6,3.8-2c0.8-1.8-1.1-3.9-0.5-5.8
				c0.4-0.9,0.9-1.6,1.6-2.3c0.7-0.6,1-1.6,0.9-2.5c-0.2-0.9-1.6-1.4-2.1-0.6"/>
		</g>
	</g>
	<g>
		
			<image style="overflow:visible;opacity:0.5;" width="114" height="127" xlink:href="90FF0884.png"  transform="matrix(1 0 0 1 548.502 124.9869)">
		</image>
		<g>
			<path class="st9" d="M603.7,171.3c-2.2-0.5-4.4-0.6-6.7-0.4c-0.5,0-1,0.1-1.4,0.3c-0.4,0.3-0.7,0.8-0.9,1.3
				c-1,3.1,0.6,6.5,3.7,7.7c0.8,0.2,1.6,0.5,2.3,0.9c1.9,1.5,0.7,4.5,1,6.8c0.4,2.7,3,4.9,2.5,7.5c-0.4,2.1-2.6,3.7-2.2,5.8
				c0.4,2.2,3.1,2.8,5.4,3c1.3,0.2,2.6,0.1,3.8-0.4c1.2-0.8,2.1-2.1,2.4-3.5c0.9-2.7,1.3-5.5,1.1-8.4c0-1.3-0.3-2.6-0.9-3.7
				c-0.7-0.9-1.4-1.7-2.2-2.5C607.3,180.9,611.7,173.5,603.7,171.3z"/>
			<path class="st10" d="M603.7,171.3c-2.2-0.5-4.4-0.6-6.7-0.4c-0.5,0-1,0.1-1.4,0.3c-0.4,0.3-0.7,0.8-0.9,1.3
				c-1,3.1,0.6,6.5,3.7,7.7c0.8,0.2,1.6,0.5,2.3,0.9c1.9,1.5,0.7,4.5,1,6.8c0.4,2.7,3,4.9,2.5,7.5c-0.4,2.1-2.6,3.7-2.2,5.8
				c0.4,2.2,3.1,2.8,5.4,3c1.3,0.2,2.6,0.1,3.8-0.4c1.2-0.8,2.1-2.1,2.4-3.5c0.9-2.7,1.3-5.5,1.1-8.4c0-1.3-0.3-2.6-0.9-3.7
				c-0.7-0.9-1.4-1.7-2.2-2.5C607.3,180.9,611.7,173.5,603.7,171.3z"/>
		</g>
	</g>
	<path class="st11" d="M1160.2,556.9c0,0-324.1-186.1-463.7-150.8c0,0-295.7,31.8-330,101.8c0,0-94-293.8-128.3-303.6"/>
	<path class="st11" d="M366.5,507.9c54.3-144.9,544-305.5,544-305.5c-69.5,17.6-214,203.7-214,203.7S391,183.8,238.3,204.4
		c0,0,672.7,22,922,352.5"/>
	<circle class="st12" cx="238.3" cy="204.4" r="14.2"/>
	<circle class="st12" cx="366.5" cy="507.9" r="14.2"/>
	<circle class="st12" cx="910.5" cy="202.4" r="14.2"/>
	<circle class="st12" cx="1160.2" cy="556.9" r="14.2"/>
	<circle class="st12" cx="696.5" cy="406.1" r="14.2"/>
</g>
</svg>
